<svg xmlns="http://www.w3.org/2000/svg" version="1.0" width="512.000000pt" height="512.000000pt" viewBox="0 0 512.000000 512.000000" preserveAspectRatio="xMidYMid meet">

<g transform="translate(0.000000,512.000000) scale(0.100000,-0.100000)" fill="currentColor" stroke="none">
<path d="M1105 5097 c-28 -16 -65 -58 -126 -142 l-85 -120 -52 -3 c-41 -2 -55 -8 -72 -29 -20 -26 -20 -28 -20 -2390 l0 -2364 25 -24 24 -25 1466 0 1466 0 24 25 c32 31 32 69 0 100 l-24 25 -1416 0 -1415 0 0 2265 0 2265 1660 0 1660 0 0 -2265 0 -2265 -119 0 c-105 0 -121 -2 -145 -21 -36 -28 -36 -80 0 -108 25 -19 40 -21 196 -21 166 0 169 0 193 25 l25 24 0 2364 c0 2362 0 2364 -20 2390 -17 21 -31 27 -72 29 l-52 3 -85 120 c-61 84 -98 126 -126 142 l-40 23 -1056 0 c-1048 0 -1055 0 -1077 -20 -14 -14 -22 -33 -22 -55 0 -22 8 -41 22 -55 22 -20 29 -20 1064 -20 l1042 0 46 -67 47 -68 -741 -3 c-407 -1 -1073 -1 -1480 0 l-741 3 47 68 46 67 222 0 c210 0 223 1 244 20 30 28 30 82 0 110 -21 19 -34 20 -257 20 -227 0 -238 -1 -276 -23z"/>
<path d="M1691 4334 c-27 -35 -26 -57 3 -91 24 -28 25 -28 167 -31 165 -4 202 1 229 30 26 28 25 58 -1 92 l-20 26 -179 0 -179 0 -20 -26z"/>
<path d="M2256 4341 c-25 -27 -24 -78 3 -104 l22 -22 560 0 561 0 24 28 c29 34 30 56 3 91 l-20 26 -568 0 c-545 0 -569 -1 -585 -19z"/>
<path d="M2100 3763 c-8 -3 -53 -43 -100 -89 l-85 -84 -12 28 c-27 59 -43 62 -348 62 -304 0 -320 -3 -350 -61 -14 -25 -15 -72 -13 -315 l3 -286 33 -29 32 -29 294 0 c280 0 294 1 319 20 38 30 47 77 47 250 l0 154 140 141 c77 78 140 149 140 158 0 29 -22 65 -47 76 -26 12 -30 12 -53 4z m-332 -278 c3 -37 -2 -44 -52 -94 l-55 -55 -60 57 c-46 44 -67 57 -90 57 -41 0 -71 -31 -71 -73 0 -29 13 -46 99 -130 62 -62 106 -97 120 -97 11 0 38 16 60 35 21 19 41 35 45 35 3 0 6 -25 6 -55 l0 -55 -215 0 -215 0 0 210 0 210 213 -2 212 -3 3 -40z"/>
<path d="M2223 3528 c-48 -23 -51 -103 -4 -127 13 -7 156 -11 416 -11 260 0 403 4 416 11 48 25 44 105 -7 128 -33 15 -789 14 -821 -1z"/>
<path d="M2208 3220 c-24 -25 -29 -36 -23 -58 3 -15 14 -35 22 -44 15 -17 68 -18 849 -18 l833 0 20 26 c12 15 21 33 21 40 0 26 -23 62 -47 73 -17 8 -262 11 -834 11 l-811 0 -30 -30z"/>
<path d="M2006 2563 c-63 -63 -90 -84 -94 -73 -3 8 -18 27 -33 42 -26 26 -33 28 -116 28 -81 0 -92 -2 -111 -23 -27 -28 -28 -67 -4 -97 13 -16 32 -24 70 -28 l52 -5 0 -39 c0 -35 -7 -47 -55 -96 l-54 -57 -58 58 c-49 48 -64 57 -94 57 -45 0 -69 -25 -69 -71 0 -30 12 -46 93 -127 107 -106 131 -114 190 -62 19 17 37 30 41 30 3 0 6 -25 6 -55 l0 -55 -215 0 -215 0 0 210 0 210 35 0 c46 0 80 17 94 47 16 34 14 47 -10 77 -19 25 -25 26 -110 26 -84 0 -90 -2 -121 -29 l-33 -29 -3 -289 c-2 -274 -1 -290 18 -321 11 -18 32 -37 46 -42 14 -6 146 -10 300 -10 295 0 318 4 346 53 8 14 14 81 16 197 l3 175 137 137 c125 126 136 140 136 174 0 26 -7 42 -23 55 -44 36 -69 26 -165 -68z"/>
<path d="M2217 2409 c-46 -27 -41 -105 9 -128 17 -7 145 -11 409 -11 264 0 392 4 409 11 51 23 55 103 7 128 -27 15 -809 14 -834 0z"/>
<path d="M2213 2115 c-11 -8 -24 -26 -27 -40 -7 -29 15 -79 39 -89 9 -3 385 -6 835 -6 764 0 819 1 839 18 11 9 24 31 27 49 5 26 1 37 -19 57 l-26 26 -823 0 c-710 0 -826 -2 -845 -15z"/>
<path d="M2001 1446 l-86 -84 -20 31 c-35 55 -46 57 -338 57 -303 0 -327 -5 -353 -66 -20 -48 -20 -550 0 -598 26 -63 50 -68 365 -64 l279 3 26 24 c38 36 46 79 46 251 l0 154 140 141 c88 89 140 149 140 162 0 37 -38 73 -77 73 -31 0 -46 -11 -122 -84z m-233 -191 c3 -37 -2 -44 -52 -94 l-55 -54 -56 51 c-68 63 -97 72 -133 45 -19 -14 -28 -31 -30 -58 -3 -36 2 -42 90 -131 109 -109 126 -114 187 -59 21 19 41 35 45 35 4 0 6 -26 4 -57 l-3 -58 -212 -3 -213 -2 0 215 0 215 213 -2 212 -3 3 -40z"/>
<path d="M2233 1300 c-32 -13 -56 -54 -48 -82 19 -60 -1 -58 450 -58 380 0 413 1 428 18 29 32 31 67 4 98 l-25 29 -394 2 c-216 1 -403 -2 -415 -7z"/>
<path d="M2207 993 c-29 -33 -31 -68 -4 -99 l25 -29 827 0 827 0 24 28 c29 34 30 56 3 91 l-20 26 -833 0 c-781 0 -834 -1 -849 -17z"/>
</g>
</svg>