<?xml version="1.0" encoding="UTF-8" standalone="no"?>
<svg
   xmlns:dc="http://purl.org/dc/elements/1.1/"
   xmlns:cc="http://creativecommons.org/ns#"
   xmlns:rdf="http://www.w3.org/1999/02/22-rdf-syntax-ns#"
   xmlns:svg="http://www.w3.org/2000/svg"
   xmlns="http://www.w3.org/2000/svg"
   xmlns:sodipodi="http://sodipodi.sourceforge.net/DTD/sodipodi-0.dtd"
   xmlns:inkscape="http://www.inkscape.org/namespaces/inkscape"
   version="1.1"
   id="svg2"
   xml:space="preserve"
   width="1133.8586"
   height="755.90533"
   viewBox="0 0 1133.8586 755.90533"
   sodipodi:docname="LogoOAN_Adaptado a vectorial.ai"><metadata
     id="metadata8"><rdf:RDF><cc:Work
         rdf:about=""><dc:format>image/svg+xml</dc:format><dc:type
           rdf:resource="http://purl.org/dc/dcmitype/StillImage" /></cc:Work></rdf:RDF></metadata><defs
     id="defs6"><clipPath
       clipPathUnits="userSpaceOnUse"
       id="clipPath18"><path
         d="M 0,566.929 H 850.394 V 0 H 0 Z"
         id="path16" /></clipPath></defs><sodipodi:namedview
     pagecolor="#ffffff"
     bordercolor="#666666"
     borderopacity="1"
     objecttolerance="10"
     gridtolerance="10"
     guidetolerance="10"
     inkscape:pageopacity="0"
     inkscape:pageshadow="2"
     inkscape:window-width="640"
     inkscape:window-height="480"
     id="namedview4" /><g
     id="g10"
     inkscape:groupmode="layer"
     inkscape:label="LogoOAN_Adaptado a vectorial"
     transform="matrix(1.3333333,0,0,-1.3333333,0,755.90533)"><g
       id="g12"><g
         id="g14"
         clip-path="url(#clipPath18)"><g
           id="g20"
           transform="translate(265.2368,277.853)"><path
             d="m 0,0 c -9.271,-0.35 -21.108,-11.478 -18.441,-24.229 0.471,-2.251 -0.246,-2.983 -2.244,-3.601 -4.175,-1.29 -8.43,-2.167 -12.716,-2.925 -1.875,-0.331 -2.188,1.161 -2.624,2.496 -2.361,7.23 -7.138,12.322 -14.441,14.254 -10.907,2.884 -18.841,-1.696 -24.79,-11.835 -2.154,-3.67 -2.097,-3.69 -6.301,-2.264 -3.173,1.078 -6.4,2.019 -9.646,2.848 -3.798,0.971 -3.76,1.33 -3.205,5.342 1.624,11.734 -2.202,22.11 -15.564,25.132 -7.124,1.612 -13.415,-0.019 -18.817,-4.857 -1.317,-1.179 -2.269,-0.903 -3.368,0.015 -4.168,3.483 -7.234,7.961 -10.769,12.014 -0.87,0.998 -0.463,1.861 0.516,2.798 5.531,5.298 6.223,11.817 4.909,18.999 -1.504,8.217 -7.211,12.262 -14.248,15.072 -2.561,1.022 -5.347,0.323 -8.027,0.401 -1.381,0.04 -2.775,0.112 -3.239,1.573 -0.68,2.142 -1.865,4.258 -1.138,6.635 0.185,0.606 0.871,0.746 1.462,0.914 10.224,2.908 16.763,14.997 13.668,25.478 -1.913,6.479 -6.082,11.628 -12.832,14.055 -1.125,0.405 -2.301,0.716 -3.356,1.261 -1.121,0.58 -1.733,1.415 -1.369,2.927 1.093,4.53 1.919,9.118 3.292,13.59 0.629,2.048 1.445,2.898 3.765,2.65 7.82,-0.835 14.541,1.383 19.832,7.511 1.795,2.079 2.074,4.944 4.031,6.863 0.436,-0.106 0.717,-0.376 0.848,-0.804 0.037,-1.153 -0.667,-2.062 -1.016,-3.09 -0.258,-0.658 -0.462,-1.337 -0.792,-1.966 -6.01,-8.149 -7.317,-17.946 -9.557,-27.407 -0.411,-1.738 -0.635,-3.533 -0.766,-5.334 -0.094,-1.289 -0.265,-2.879 -1.868,-3.016 -1.643,-0.141 -1.811,1.554 -2.345,2.688 -1.345,2.853 -0.588,5.693 0.194,8.467 0.543,1.924 0.94,3.885 1.552,5.789 0.473,1.474 0.551,2.848 -0.465,4.257 -1.282,1.778 -0.449,2.999 1.442,3.616 1.293,0.423 2.651,0.702 3.072,2.369 -2.413,-1.65 -5.108,-2.55 -7.819,-3.48 -1.957,-0.671 -3.677,-0.813 -5.376,0.451 -1.572,1.17 -2.485,0.736 -3.017,-1.102 -1.112,-3.834 -1.353,-7.826 -2.198,-11.707 -0.268,-1.232 0.882,-1.362 1.638,-1.78 2.701,-1.491 5.403,-2.908 7.889,-4.838 4.332,-3.362 6.436,-7.756 7.329,-12.944 0.102,-0.593 0.229,-1.176 0.389,-1.755 1.371,-14.025 4.604,-27.606 10.836,-40.261 4.791,-9.729 11.28,-18.351 19.464,-25.588 0.523,-0.463 1.163,-0.804 1.624,-1.327 4.145,-4.694 9.149,-8.298 14.495,-11.472 0.984,-1.04 2.01,-2.033 3.25,-2.778 2.329,-1.844 3.813,-3.99 4.245,-7.167 0.346,-2.547 2.355,-4.756 2.154,-7.626 -0.133,-1.914 -0.174,-3.758 -1.477,-5.338 -1.019,-1.237 -0.429,-1.619 0.903,-2.248 3.877,-1.834 8.514,-1.036 12.123,-3.661 0.57,-0.414 1.243,-0.252 1.564,0.327 2.059,3.719 5.427,6.566 7.271,10.686 -2.1,-0.175 -3.078,-2.12 -4.888,-2.316 -1.72,1.243 -2.613,3.476 -4.92,4.041 -0.665,0.163 -1.279,0.723 -1.967,0.66 -2.213,-0.206 -4.102,0.4 -5.792,1.843 -0.627,0.534 -1.549,0.273 -2.323,0.473 -0.386,0.129 -0.776,0.283 -1.001,0.621 -1.067,1.597 -2.356,3.705 -1.259,5.168 1.153,1.537 3.392,0.34 4.92,-0.479 6.584,-3.527 13.918,-4.795 20.996,-6.613 3.001,-0.771 6.683,0.138 10.058,0.263 2.03,-0.039 4.068,0.13 6.085,-0.225 4.143,-1.37 8.217,0.108 12.316,0.34 5.778,0.327 11.186,2.307 16.649,4.003 1.053,0.327 2.337,0.865 3.009,-0.216 0.698,-1.125 -0.526,-1.954 -1.22,-2.744 -0.788,-0.896 -1.732,-1.631 -2.704,-2.318 -1.521,-1.23 -3.236,-1.712 -5.222,-1.856 -3.045,-0.222 -6.142,-0.432 -8.457,-3.055 -1.457,-1.651 -3.034,0.149 -4.733,0.445 2.281,-3.799 5.614,-6.55 7.903,-10.122 -0.283,0.81 -1.141,1.176 -1.391,2.021 -0.274,0.926 -0.115,1.769 0.34,2.586 0.97,1.742 2.406,2.278 4.292,1.666 1.568,-1.006 4.159,-0.578 4.154,-3.791 -0.002,-1.189 2.425,-0.733 3.732,-0.67 1.179,0.056 0.857,1.069 0.658,1.857 -1.213,4.782 0.673,8.963 2.826,12.955 1.407,2.61 3.365,4.929 5.447,7.092 2.659,2.171 5.482,4.06 8.81,5.07 2.02,0.212 3.702,1.913 5.901,1.356 C 3.005,1.011 1.122,0.767 0,0"
             style="fill:#b7b8b6;fill-opacity:1;fill-rule:nonzero;stroke:none"
             id="path22" /></g><g
           id="g24"
           transform="translate(130.2002,410.329)"><path
             d="m 0,0 c -0.208,0.213 -0.415,0.427 -0.623,0.641 0.338,5.745 0.71,11.45 -2.31,16.792 -0.943,1.667 -2.01,3.171 -3.248,4.575 -0.749,0.85 -1.201,1.534 -0.228,2.535 2.846,2.93 4.995,6.447 8.014,9.265 1.805,1.684 3.228,2.005 5.179,0.481 2.713,-2.118 5.747,-3.462 9.226,-3.953 6.994,-0.986 12.643,1.615 17.555,6.264 1.365,1.292 2.551,2.796 3.678,4.309 3.357,4.504 2.6,9.686 2.018,14.704 -0.226,1.95 0.071,3.242 1.781,3.857 5.047,1.813 10.139,3.503 15.237,5.168 1.812,0.591 2.56,-0.756 3.036,-2.124 2.316,-6.661 7.285,-10.396 13.608,-12.897 7.985,-3.159 20.122,1.496 23.848,9.251 0.945,1.967 1.987,3.805 2.486,6.012 0.484,2.139 2.543,1.914 4.25,1.469 4.121,-1.073 8.205,-2.29 12.335,-3.325 2.179,-0.545 2.563,-2.013 2.321,-3.857 -0.901,-6.854 1.534,-12.547 6.367,-17.165 5.976,-5.71 13.227,-6.512 20.863,-4.312 2.81,0.81 5.812,1.565 7.791,4.156 0.987,1.291 2.2,0.677 3.169,-0.09 3.82,-3.025 7.713,-5.951 10.758,-9.861 1.236,-1.586 0.571,-2.393 -0.45,-3.539 -7.825,-8.776 -6.311,-21.58 1.629,-28.759 5.644,-5.103 12.677,-6.85 20.215,-4.296 1.894,0.642 2.848,0.166 3.463,-1.539 2.87,-7.95 4.616,-16.201 6.522,-24.408 0.36,-1.549 -0.542,-2.425 -1.921,-2.92 -5.383,-1.934 -9.602,-5.5 -12.485,-10.264 -3.915,-6.471 -4.037,-13.81 0.95,-21.347 2.424,-3.664 5.735,-6.308 9.757,-8.061 1.046,-0.455 2.205,-0.975 1.666,-2.356 -1.71,-4.376 -1.979,-9.162 -3.95,-13.46 -0.776,-1.694 -1.709,-2.515 -3.72,-1.793 -6.153,2.208 -11.646,0.1 -16.631,-3.258 -6.46,-4.353 -9.404,-10.781 -8.865,-18.485 0.305,-4.349 1.576,-8.608 4.727,-11.945 1.474,-1.561 1.536,-2.605 -0.298,-4.12 -4.063,-3.359 -7.454,-7.458 -11.57,-10.805 -1.512,-1.23 -2.488,-1.436 -3.711,-0.025 -4.606,5.319 -10.574,7.226 -17.403,7.007 0.789,0.96 1.576,1.919 2.364,2.878 0.201,0.242 0.453,0.406 0.754,0.496 0.612,0.143 1.202,0.072 1.773,-0.175 0.627,-0.306 1.129,-0.922 1.803,-1.042 4.353,-0.768 7.519,-3.513 10.656,-6.308 1.292,-1.152 2.801,-1.633 3.928,-0.161 2.472,3.228 6.043,5.184 8.819,8.042 1.185,1.22 2.102,2.282 0.04,3.482 -0.434,0.253 -0.87,0.642 -0.953,1.118 -0.974,5.55 -4.101,10.651 -3.349,16.572 0.357,2.812 2.18,4.885 3.285,7.317 0.288,0.635 0.608,1.258 0.988,1.847 2.037,2.141 3.7,4.622 5.934,6.59 1.095,1.126 2.144,2.307 3.546,3.081 2.754,1.231 5.415,2.209 8.598,1.015 2.083,-0.78 4.472,0.385 6.795,-0.136 1.066,-0.239 1.405,1.295 1.543,2.237 0.444,3.051 1.11,6.058 1.672,9.083 0.203,1.09 -0.199,1.693 -1.039,2.218 -4.771,2.981 -8.235,7.19 -11.123,11.926 -2.336,3.831 -2.411,8.1 -1.422,12.173 1.959,8.065 6.768,14.14 14.299,17.821 1.535,0.75 2.04,1.289 1.493,3.114 -1.546,5.156 -2.569,10.452 -3.544,15.748 -0.181,0.979 -0.276,1.967 -0.571,2.93 -1.163,3.797 -1.109,3.661 -4.897,2.549 -2.291,-0.674 -4.792,-0.303 -7.093,0.045 -5.648,0.854 -10.61,3.204 -14.109,7.992 -1.578,2.006 -2.771,4.242 -3.893,6.521 -0.994,2.069 -1.209,4.436 -2.48,6.406 -0.458,0.711 -0.447,1.542 -0.141,2.316 1.788,4.511 2.231,9.568 5.532,13.464 1.298,1.53 0.891,2.92 -0.494,4.187 -2.555,2.335 -5.851,3.771 -7.971,6.652 -0.516,0.7 -1.456,0.846 -2.104,0.096 -3.127,-3.617 -7.362,-4.976 -11.814,-5.923 -0.198,-0.042 -0.339,-0.2 -0.59,-0.6 3.145,-1.845 5.361,-4.829 8.416,-6.862 1.082,-0.719 1.929,-0.867 2.974,-0.107 0.743,0.541 1.611,1.002 2.494,0.426 1.043,-0.681 0.814,-1.804 0.494,-2.725 -0.794,-2.289 0.244,-4.048 1.375,-5.868 0.572,-0.92 1.179,-2.165 0.026,-2.962 -1.175,-0.813 -2.088,0.274 -2.743,1.104 -1.365,1.728 -2.875,3.325 -4.311,4.987 -2.284,2.645 -4.647,5.22 -8.083,6.46 -1.134,0.41 -2.109,1.145 -3.001,1.956 -3.511,3.191 -7.442,5.667 -11.896,7.366 -2.284,0.87 -4.096,2.42 -5.283,4.662 -0.746,1.408 -1.662,2.731 -2.46,4.116 -2.272,3.946 -4.054,8.042 -3.535,12.759 0.15,1.361 -0.21,1.762 -1.74,1.959 -3.138,0.403 -6.127,1.625 -9.239,2.311 -2.034,0.45 -2.831,0.063 -3.849,-1.894 -2.733,-5.254 -6.599,-9.697 -11.649,-12.9 -1.69,-1.071 -3.88,-0.939 -5.846,-1.098 -4.183,-0.34 -8.389,-0.147 -12.585,-0.096 -0.911,0.01 -1.795,0.19 -2.454,0.919 -1.748,2.056 -4.194,3.4 -5.762,5.641 -1.213,1.906 -2.583,3.717 -3.692,5.688 -1.867,3.319 -1.839,3.336 -5.08,1.785 -1.087,-0.331 -2.249,-0.228 -3.33,-0.592 -2.762,-0.432 -5.364,-1.307 -7.792,-2.714 -0.699,-0.406 -1.676,-0.733 -1.077,-1.697 1.196,-1.925 0.324,-4.107 0.976,-6.074 0.128,-1.061 -0.056,-2.053 -0.644,-2.954 -1.389,-1.633 -0.858,-3.871 -1.756,-5.644 1.614,-0.818 1.678,0.818 2.346,1.473 0.605,1.125 0.346,2.479 0.952,3.603 0.184,0.224 0.414,0.383 0.686,0.483 1.078,0.251 1.856,-0.354 2.643,-0.924 0.684,-0.555 1.382,-0.398 2.085,-0.026 1.318,0.58 2.663,1.062 4.068,1.379 3.725,0.606 7.435,1.198 11.025,2.465 1.792,0.631 3.325,-0.059 3.976,-2.053 -1.312,-2.396 -3.806,-2.727 -6.061,-3.11 -1.956,-0.333 -3.874,-0.731 -5.771,-1.276 -3.622,-0.996 -7.12,-2.406 -10.78,-3.273 -0.942,-0.25 -1.83,-0.623 -2.634,-1.186 -1.477,-0.975 -3.01,-1.841 -4.696,-2.407 -1.091,-0.473 -2.037,-1.185 -3.016,-1.844 -1.01,-0.671 -2.017,-1.346 -3.011,-2.04 -2.168,-1.341 -4.02,-3.186 -6.49,-4.042 -2.776,-1.134 -5.642,-1.6 -8.627,-1.164 C 12.774,27.674 9.02,29.236 5.918,32.014 4.448,33.331 3.51,33.268 2.123,32.027 -0.37,29.796 -2.001,26.89 -4.165,24.408 -4.692,23.803 -4.74,23.085 -4.18,22.504 -0.407,18.59 0.41,13.292 2.415,8.547 2.688,7.699 2.992,6.855 2.871,5.938 1.773,4.028 1.635,1.651 0,0"
             style="fill:#b7b9b7;fill-opacity:1;fill-rule:nonzero;stroke:none"
             id="path26" /></g><g
           id="g28"
           transform="translate(165.0044,280.1313)"><path
             d="m 0,0 c -8.979,4.505 -15.934,11.6 -22.514,18.827 -9.166,10.067 -15.824,21.729 -19.605,35.037 -1.793,6.312 -2.58,12.807 -4.416,19.089 -0.568,1.942 -0.205,4.155 -0.268,6.244 -1.33,6.082 0.02,12.046 0.992,17.978 1.615,9.859 4.599,19.317 9.207,28.223 0.037,0.654 -0.093,1.364 0.6,1.8 2.767,4.429 6.029,8.515 8.928,12.853 0.301,0.468 0.633,0.911 0.996,1.331 4.328,5.187 8.999,10.033 14.249,14.302 0.309,0.274 0.637,0.524 0.977,0.757 3.095,2.239 6.129,4.564 9.433,6.502 0.234,0.163 0.48,0.303 0.73,0.437 4.448,2.716 8.854,5.513 13.9,7.053 2.302,0.265 4.114,1.834 6.314,2.373 6.196,1.409 12.304,3.224 18.65,3.906 0.967,0.104 1.981,0.526 2.767,-0.455 0.403,-1.759 -0.833,-2.522 -2.05,-3.214 -0.855,-0.486 -1.884,-0.649 -2.637,-1.349 -3.199,-1.848 -6.871,-1.921 -10.348,-2.706 -9.254,-2.09 -17.705,-5.935 -25.446,-11.383 -8.751,-4.482 -15.161,-11.692 -21.75,-18.692 -4.724,-6.862 -9.355,-13.777 -12.76,-21.428 -3.937,-7.464 -4.88,-15.754 -6.263,-23.854 -1.341,-7.858 -1.214,-15.844 0.023,-23.762 1.325,-7.545 2.564,-15.109 5.702,-22.195 0.887,-2.005 1.693,-4.04 3.003,-5.819 3.1,-6.839 7.503,-12.834 12.157,-18.663 7.068,-7.76 15.009,-14.44 24.04,-19.849 4.395,-2.632 9.447,-3.633 13.91,-6.042 0.927,-0.501 1.721,0.088 2.527,0.456 1.544,-0.494 1.999,-2.537 3.806,-2.662 10.318,-3.292 20.931,-3.57 31.611,-3.141 1.192,0.048 2.36,0.343 3.498,0.715 0.601,0.306 1.228,0.53 1.905,0.583 3.243,-0.421 6.229,0.898 9.34,1.382 1.125,0.176 2.288,0.863 3.372,-0.142 0.29,-1.569 -0.99,-1.753 -1.953,-2.116 -3.453,-1.303 -7.154,-1.432 -10.724,-2.19 -8.392,-1.955 -16.789,-1.594 -25.244,-0.324 -3.951,0.594 -7.847,1.388 -11.752,2.183 -0.603,0.122 -1.22,0.24 -1.74,-0.128 -2.518,-1.784 -4.934,-0.836 -7.38,0.187 C 10.346,-5.618 5.104,-2.95 0,0"
             style="fill:#a4a6a5;fill-opacity:1;fill-rule:nonzero;stroke:none"
             id="path30" /></g><g
           id="g32"
           transform="translate(128.3999,405.5292)"><path
             d="m 0,0 c -1.766,-7.146 -5.365,-13.675 -6.907,-20.915 -1.78,-8.351 -3.162,-16.731 -3.292,-25.286 -0.994,1.124 -0.881,2.63 -1.1,3.925 -1.032,6.108 -5.246,9.668 -10.031,12.652 -1.789,1.116 -3.57,2.478 -5.89,2.739 -1.41,0.158 -1.264,1.708 -0.699,2.364 1.149,1.336 1.03,2.809 0.879,4.242 -0.281,2.664 1.183,4.908 1.585,7.42 0.565,3.518 1.084,3.552 4.077,1.484 1.439,-0.995 2.638,-1.226 4.387,-0.525 2.847,1.14 5.803,1.96 8.265,3.916 0.411,0.326 1.049,0.756 1.625,0.227 0.761,-0.699 0.031,-1.203 -0.281,-1.799 -0.812,-1.556 -2.035,-2.41 -3.803,-2.448 -0.853,-0.018 -1.609,-0.225 -1.875,-1.155 -0.231,-0.807 0.185,-1.417 0.864,-1.71 1.864,-0.802 0.921,-2.354 0.688,-3.366 -0.839,-3.646 -2.05,-7.202 -2.662,-10.912 -0.372,-2.245 0.676,-4.141 1.346,-6.129 0.076,-0.226 0.771,-0.496 0.973,-0.382 0.746,0.422 1.022,1.225 1.021,2.033 -0.004,2.706 0.605,5.312 1.139,7.938 1.108,5.448 2.801,10.722 4.348,16.048 1.1,3.785 2.801,6.846 5.343,9.639"
             style="fill:#b6b8b6;fill-opacity:1;fill-rule:nonzero;stroke:none"
             id="path34" /></g><g
           id="g36"
           transform="translate(268.2002,280.7289)"><path
             d="m 0,0 h -0.6 c -2.002,-0.599 -4.004,-1.198 -6.005,-1.797 -0.03,1.542 1.332,1.77 2.27,2.387 8.682,5.715 16.603,12.284 23.047,20.51 2.404,3.76 4.877,7.464 8.486,10.225 0.135,-0.041 0.27,-0.084 0.404,-0.127 C 27.239,30.281 27.047,29.239 26.486,28.465 22.212,22.58 23.227,16.52 25.711,10.361 26.116,9.359 26.661,8.248 26.561,7.246 26.396,5.597 27.146,4.887 28.456,4.357 30.254,3.629 30.1,2.658 28.813,1.505 27.19,0.049 25.86,-1.717 23.927,-2.85 21.844,-4.071 20.434,-6.019 18.868,-7.801 17.427,-9.441 15.889,-9.435 14.218,-7.944 11.063,-5.13 8.117,-1.94 3.455,-1.611 2.681,-1.557 2.162,-0.739 1.8,0 1.807,2.017 3.372,2.185 4.779,2.405 5.924,2.584 7.1,2.276 8.261,2.41 c 2.792,-0.673 5.517,-1.465 7.103,-4.196 0.91,-1.568 1.886,-1.173 3.184,-0.323 2.382,1.559 3.285,4.44 5.765,6.055 -1.215,1.371 -1.94,2.962 -2.304,4.74 -0.321,1.566 -1.388,2.556 -2.738,3.347 -1.325,0.777 -1.701,2.022 -0.137,2.677 2.066,0.866 1.712,2.332 1.68,3.999 C 18.177,17.79 18.677,14.59 16.604,13.428 13.382,11.926 10.883,9.626 8.527,6.951 6.112,4.208 2.712,2.487 0,0"
             style="fill:#b6b8b6;fill-opacity:1;fill-rule:nonzero;stroke:none"
             id="path38" /></g><g
           id="g40"
           transform="translate(287.3984,301.7255)"><path
             d="m 0,0 c -1.173,-2.82 -3.4,-4.929 -5.522,-6.865 -6.066,-5.531 -12.07,-11.205 -19.371,-15.186 -0.338,-0.185 -0.609,-0.492 -0.911,-0.742 -3.178,-0.935 -5.793,-2.856 -8.398,-4.794 -4.194,-2.708 -9.103,-3.429 -13.731,-4.929 -7.82,-2.534 -15.866,-3.548 -24.067,-3.479 l -6.582,0.015 c -2.415,0.75 -4.913,0.207 -7.378,0.489 -8.143,0.931 -15.858,3.231 -23.369,6.436 -3.472,1.481 -7.116,2.564 -10.069,5.057 -1.516,0.157 -2.251,1.287 -2.996,2.404 1.521,-0.067 2.821,-0.69 4.172,-1.373 4.341,-2.199 8.711,-4.359 13.18,-6.276 1.633,-0.7 3.709,-1.958 5.183,0.636 0.373,0.657 1.401,0.607 1.926,0.276 1.604,-1.008 3.466,-0.703 5.103,-1.19 8.413,-2.503 17.017,-2.216 25.628,-2.371 2.402,-0.043 4.291,1.475 6.594,1.289 1.589,-2.263 3.824,-1.749 5.971,-1.301 9.835,2.055 19.019,5.805 27.762,10.711 8.856,4.971 16.458,11.464 23.308,18.908 C -2.615,-1.25 -1.835,0.258 0,0"
             style="fill:#ada9ae;fill-opacity:1;fill-rule:nonzero;stroke:none"
             id="path42" /></g><g
           id="g44"
           transform="translate(168,277.728)"><path
             d="m 0,0 c 4.955,-1.805 9.557,-4.407 14.544,-6.189 8.009,-2.862 16.139,-4.872 24.652,-5.207 0.612,-0.025 1.199,-0.062 1.62,-0.586 -3.064,-0.242 -6.178,0.462 -9.209,-0.536 -0.809,-0.266 -1.521,0.311 -2.278,0.531 -7.697,2.239 -15.472,4.236 -22.824,7.523 -0.328,0.147 -0.73,0.129 -1.623,0.273 1.45,-1.89 0.329,-4.514 2.918,-5.408 1.097,-1.223 0.603,-2.611 0.409,-3.967 -0.717,-5.032 1.862,-7.145 6.915,-7.311 2.647,-0.087 3.652,0.658 4.639,2.582 0.49,0.957 1.465,1.257 2.437,1.496 1.934,1.303 3.547,3.198 6.663,3.398 -1.194,-2.079 -1.983,-4.104 -3.328,-5.641 -1.85,-2.114 -3.474,-4.349 -4.805,-6.782 -0.881,-1.613 -1.69,-2.215 -3.026,-0.568 -0.743,0.917 -1.831,1.563 -2.826,1.47 -3.499,-0.327 -6.359,1.894 -9.693,2.156 -2.342,0.185 -1.888,1.619 -0.949,2.898 2.287,3.115 2.49,7.616 0.38,10.745 C 4.288,-8.635 3.639,-8.065 3.72,-7.646 4.402,-4.123 1.843,-2.247 0,0"
             style="fill:#b6b8b6;fill-opacity:1;fill-rule:nonzero;stroke:none"
             id="path46" /></g><g
           id="g48"
           transform="translate(215.3989,265.7309)"><path
             d="m 0,0 c 3.092,1.314 6.427,0.674 9.632,1.071 7.553,0.938 14.777,2.96 21.898,5.454 2.07,0.726 4.164,1.305 6.268,1.882 -1.11,-1.391 -2.075,-2.936 -3.357,-4.146 -3.577,-3.374 -3.74,-8.187 -5.435,-12.347 -0.485,-1.188 0.499,-2.056 0.846,-3.06 0.825,-2.392 0.27,-3.081 -2.187,-2.783 -0.885,0.108 -1.785,0.085 -2.678,0.128 -1.206,0.059 -2.757,-0.209 -1.362,1.857 0.705,1.043 0.192,1.708 -1.032,1.724 -0.972,0.013 -1.769,0.257 -2.192,1.218 -0.809,1.059 -0.397,2.041 0.602,2.413 3.176,1.183 4.218,4.199 5.998,6.587 1.553,1.356 3.226,2.592 4.443,4.411 -1.068,0.77 -1.871,0.034 -2.75,-0.247 C 22.405,2.146 16.121,0.18 9.417,-0.057 6.917,-0.145 4.475,-1.182 1.893,-0.622 1.229,-0.478 0.484,-0.667 0,0"
             style="fill:#b6b8b6;fill-opacity:1;fill-rule:nonzero;stroke:none"
             id="path50" /></g><g
           id="g52"
           transform="translate(190.2002,260.9291)"><path
             d="m 0,0 c -2.096,-1.615 -3.371,-3.77 -4.03,-6.859 -1.236,1.896 -2.259,3.605 -4.255,1.622 -0.21,-0.208 -0.779,-0.154 -1.155,-0.08 -3.793,0.732 -6.302,4.488 -5.395,8.383 0.324,1.393 0.407,2.745 0.435,4.134 0.385,0.077 0.962,0.357 1.127,0.2 3.188,-3.011 7.94,-1.771 11.39,-4.258 C -0.619,2.23 -0.997,0.797 0,0"
             style="fill:#b6b8b6;fill-opacity:1;fill-rule:nonzero;stroke:none"
             id="path54" /></g><g
           id="g56"
           transform="translate(242.3999,265.7289)"><path
             d="M 0,0 C -1.007,-2.786 -1.652,-5.835 -5.105,-6.798 -6.188,-7.101 -6.74,-7.833 -6.6,-9 c -1.032,-0.147 -2.116,0.312 -3.051,-0.706 -1.912,-2.082 -1.417,-3.489 1.863,-4.874 -2.498,-1.944 -2.573,-1.981 -3.834,0.684 -1.16,2.453 -3.56,3.85 -4.922,6.121 -0.837,1.395 -2.11,2.545 -2.527,4.291 1.165,0.125 1.848,-0.544 2.624,-0.905 1.425,-0.661 2.24,-1.362 3.786,0.609 1.828,2.328 5.375,2.353 8.291,2.412 C -2.633,-1.333 -1.32,-0.896 0,0"
             style="fill:#b6b8b6;fill-opacity:1;fill-rule:nonzero;stroke:none"
             id="path58" /></g><g
           id="g60"
           transform="translate(138.5864,419.9291)"><path
             d="m 0,0 c -3.111,-4.264 -5.738,-8.896 -9.586,-12.6 0.399,1 0.799,2 1.2,3 0.48,2.128 0.873,4.29 2.4,6 1.723,1.063 2.382,3.252 4.319,4.094 C -1.028,0.607 -0.461,0.48 0,0"
             style="fill:#b6b8b6;fill-opacity:1;fill-rule:nonzero;stroke:none"
             id="path62" /></g><g
           id="g64"
           transform="translate(301.7998,317.9291)"><path
             d="m 0,0 c -2.483,-1.517 -3.373,-4.626 -5.998,-6.002 l -0.005,0.005 c -0.991,2.366 0.538,4.228 1.34,6.181 1.626,3.962 4.081,7.508 5.493,11.623 2.973,8.667 5.017,17.589 5.316,26.647 0.324,9.827 -0.277,19.698 -3.318,29.294 -2.119,6.684 -4.111,13.32 -7.988,19.275 -1.089,1.672 -1.782,3.812 -0.852,5.974 1.72,-1.615 3.423,-3.249 5.17,-4.833 0.583,-0.528 1.219,-1.166 1.934,-1.35 4.199,-1.078 8.462,-1.835 12.791,-2.169 0.193,-0.015 0.455,-0.016 0.579,0.096 1.273,1.14 2.723,2.569 4.384,1.334 1.626,-1.21 1.642,-3.579 1.996,-5.388 1.25,-6.393 1.955,-12.893 4.593,-18.951 C 26.06,60.302 24.733,59.933 23.896,59.708 15.672,57.492 7.401,45.141 8.308,36.824 c 0.743,-6.809 4.806,-11.307 9.389,-15.558 1.243,-1.153 2.468,-2.616 4.374,-3 0.498,-0.1 1.219,-0.738 0.939,-1.34 C 21.151,12.925 21.746,8.343 19.944,4.327 19.495,3.325 19.175,3.172 18.002,3.294 13.006,3.813 7.945,5.49 3,3 1.836,2.943 2.347,3.689 2.545,4.104 3.351,5.783 4.937,6.388 6.462,6.728 6.71,7.042 6.784,7.256 6.663,7.416 5.752,8.627 4.499,10.01 6.492,11.106 8.007,11.938 9.24,11.24 9.979,9.468 c 0.756,-1.816 3.722,-1.917 5.914,-0.341 1.841,1.323 1.84,2.678 -0.001,4.038 -0.407,0.299 -0.794,0.819 -0.659,1.278 0.952,3.233 -1.826,4.764 -3.215,6.833 -1.107,1.651 -2.373,3.18 -3.305,5.105 C 8.085,21.718 5.787,17.505 5.438,12.763 5.217,9.761 2.803,7.686 1.737,5 1.083,3.35 0.292,1.77 0,0"
             style="fill:#b6b8b6;fill-opacity:1;fill-rule:nonzero;stroke:none"
             id="path66" /></g><g
           id="g68"
           transform="translate(205.8052,455.9262)"><path
             d="m 0,0 c -3.163,0.757 -6.133,-0.41 -9.147,-0.979 -4.169,-0.785 -8.307,-1.736 -12.457,-2.616 -0.134,1.333 1.33,1.068 1.799,1.798 3.911,1.496 8.448,0.906 12,3.6 0.15,0.25 0.239,0.561 0.6,0.6 C -1.777,1.269 3.67,1.832 9.128,2.128 c 6.246,0.339 9.23,4.871 12.594,9.156 1.521,1.937 3.189,3.602 3.64,6.183 0.215,1.228 1.366,1.239 2.43,0.759 3.072,-1.384 6.788,-0.669 9.593,-2.936 0.072,-0.058 0.205,-0.119 0.272,-0.09 5.333,2.227 3.069,-1.938 3.095,-3.834 0.07,-5.136 2.674,-9.245 5.004,-13.524 1.807,-3.319 4.339,-5.461 7.914,-6.782 2.859,-1.056 5.591,-2.488 7.867,-4.775 2.311,-2.322 5.535,-3.456 8.243,-5.208 3.525,-2.281 6.088,-5.898 8.769,-9.21 0.735,-0.908 1.658,-2.679 2.497,-2.047 1.329,1.001 -0.194,2.321 -0.963,3.201 -1.513,1.736 -1.424,3.551 -0.772,5.526 0.23,0.697 0.932,1.527 -0.148,2.067 -0.767,0.384 -1.373,-0.219 -1.782,-0.76 -1.413,-1.867 -2.338,-0.886 -3.828,0.158 -3.379,2.368 -5.686,6.042 -10.077,7.436 1.463,1.386 2.837,1.553 4.173,1.823 3.978,0.803 7.632,2.158 10.023,5.753 0.615,0.924 1.656,1.078 2.283,0.221 2.492,-3.406 6.42,-5.091 9.328,-7.993 1.474,-1.471 1.595,-2.61 0.225,-4.347 -2.324,-2.944 -4.053,-6.253 -4.377,-10.132 -0.055,-0.665 -0.395,-1.343 -0.736,-1.94 -0.849,-1.478 -1.118,-2.621 0.129,-4.29 1.11,-1.485 1.282,-3.671 1.868,-5.548 -1.791,-0.463 -2.719,0.824 -3.627,1.927 -1.061,1.289 -2.114,2.576 -3.338,3.714 -5.543,6.129 -11.673,11.623 -18.136,16.757 -3.415,3.026 -7.015,5.744 -11.525,6.953 -0.555,0.11 -1.062,0.322 -1.502,0.68 -1.521,1.403 -3.251,2.348 -5.372,2.444 -0.286,0.056 -0.56,0.14 -0.835,0.235 -1.829,0.747 -3.703,1.336 -5.658,1.666 -7.615,2.599 -15.524,3.363 -23.482,3.732 -3.179,0.147 -6.369,0 -9.554,0.038 C 2.185,-0.846 0.947,-0.964 0,0"
             style="fill:#b6b8b6;fill-opacity:1;fill-rule:nonzero;stroke:none"
             id="path70" /></g><g
           id="g72"
           transform="translate(285.5991,422.934)"><path
             d="m 0,0 c 2.715,-1.439 3.441,-5.059 6.598,-6.013 1.197,-1.998 2.394,-3.997 3.591,-5.995 0.309,-4.012 2.668,-7.153 4.351,-10.616 4.054,-8.34 6.61,-17.148 7.72,-26.395 0.605,-5.031 1.184,-10.099 1.04,-15.114 -0.331,-11.481 -2.654,-22.677 -7.037,-33.303 -1.883,-4.564 -4.974,-8.62 -6.066,-13.566 -3.147,-3.116 -5.757,-6.674 -8.398,-10.206 -4.28,-3.821 -8.107,-8.101 -12.417,-11.911 -7.695,-6.801 -16.494,-11.682 -25.828,-15.687 -5.109,-2.191 -10.43,-3.807 -15.886,-4.983 -1.39,-0.299 -2.748,-0.3 -4.124,-0.436 -1.87,-0.183 -2.564,0.639 -2.353,2.413 3.814,0.898 7.79,1 11.51,2.391 0.648,0.242 1.02,0.519 1.101,1.184 0.283,1.008 1.173,1.307 1.997,1.616 7.912,2.969 15.753,6.083 22.888,10.713 0.412,0.268 0.915,0.382 1.391,0.527 6.385,4.46 12.629,9.09 17.362,15.389 1.98,2.635 4.262,5.034 6.133,7.733 5.14,7.413 9.121,15.337 11.572,24.122 1.309,4.691 2.827,9.302 3.702,14.117 1.729,9.523 1.583,19.046 -0.254,28.478 -1.426,7.32 -2.922,14.7 -6.86,21.245 -0.968,5.659 -4.661,9.852 -7.754,14.367 C 2.8,-7.678 1.329,-5.629 -0.359,-3.729 -0.786,-2.308 -3.195,-1.773 -2.17,0.3 -1.38,0.678 -0.673,0.463 0,0"
             style="fill:#a4a6a5;fill-opacity:1;fill-rule:nonzero;stroke:none"
             id="path74" /></g><g
           id="g76"
           transform="translate(153.5942,435.5302)"><path
             d="m 0,0 c -5.073,-4.525 -9.749,-9.447 -14.395,-14.4 -1.685,0.972 -1.084,2.063 -0.143,3.14 0.851,0.974 1.996,1.954 1.175,3.353 -0.762,1.297 -2.267,0.949 -3.524,1.007 -0.492,0.022 -0.977,-0.167 -1.47,-0.203 -1.628,-0.118 -2.59,0.279 -1.762,2.189 0.379,0.872 1.037,1.912 -0.222,2.592 -0.805,0.434 -1.545,-0.05 -2.092,-0.683 -0.839,-0.974 -0.412,-1.825 0.336,-2.617 0.273,-0.289 0.521,-0.597 0.733,-0.934 0,0 4.167,-5.236 4.169,-5.238 -0.665,-2.373 -1.436,-4.655 -4.399,-5.007 -1.399,3.492 -2.794,6.986 -4.198,10.476 -0.221,0.552 -0.327,1.361 -0.74,1.589 -3.822,2.11 -2.102,3.887 -0.12,6.319 1.82,2.234 3.584,4.492 5.653,6.501 1.074,1.042 2.29,1.447 3.33,0.104 2.821,-3.645 7.106,-4.395 11.075,-5.789 1.538,-1.317 1.547,-2.541 -0.003,-3.421 -0.515,-0.292 -1.161,-0.289 -1.673,-0.596 -0.935,-0.561 -1.642,-1.446 -0.992,-2.435 0.794,-1.208 1.742,-0.404 2.458,0.309 1.121,1.117 2.116,2.388 3.537,3.141 C -2.265,-0.073 -1.277,0.839 0,0"
             style="fill:#b6b8b6;fill-opacity:1;fill-rule:nonzero;stroke:none"
             id="path78" /></g><g
           id="g80"
           transform="translate(301.7998,317.9291)"><path
             d="m 0,0 c -1.279,2.31 0.325,4.036 1.386,5.684 3.475,5.396 3.865,11.761 5.83,17.624 0.556,1.658 0.199,3.538 1.469,5.614 1.578,-5.081 4.909,-8.5 7.885,-12.142 1.164,-1.424 -2.246,-1.68 -0.544,-2.997 0.892,-0.69 2.408,-0.816 2.365,-2.358 C 18.375,10.871 18.06,10.274 17.741,9.789 16.229,7.49 13.8,7.361 11.4,7.205 9.292,7.067 8.979,8.222 9.118,10.041 9.176,10.802 8.088,10.788 7.389,10.78 6.75,10.772 6.176,10.608 6.073,9.853 5.986,9.208 6.146,8.677 6.854,8.435 7.623,8.171 8.537,7.864 8.078,6.812 7.72,5.995 7.116,5.527 5.948,5.653 4.214,5.839 3.196,4.764 3,3 Z"
             style="fill:#b6b8b6;fill-opacity:1;fill-rule:nonzero;stroke:none"
             id="path82" /></g><g
           id="g84"
           transform="translate(183,456.5292)"><path
             d="M 0,0 C -1.4,-0.4 -2.8,-0.8 -4.2,-1.2 -5.209,-0.258 -3.479,0.748 -4.221,1.711 -5.897,1.359 -3.792,-1.21 -6,-1.2 -6.832,-0.864 -7.355,0.089 -8.4,0 c 0.589,2.564 1.687,4.961 1.978,7.657 0.224,2.076 5.563,4.93 7.776,4.731 C 2.281,12.304 2.843,11.831 3.167,11.056 4.283,8.379 6.364,6.531 8.489,4.7 10.22,3.209 10.119,2.746 7.976,2.05 6.556,1.588 5.145,1.161 3.604,1.162 2.325,1.162 1.001,1.003 0,0"
             style="fill:#b6b8b6;fill-opacity:1;fill-rule:nonzero;stroke:none"
             id="path86" /></g><g
           id="g88"
           transform="translate(183,456.5292)"><path
             d="m 0,0 c 0.895,1.904 2.79,1.42 4.319,1.784 0.67,0.16 1.452,0.002 2.051,0.277 0.893,0.41 2.054,0.02 2.891,1.127 C 6.374,5.237 3.922,7.576 2.287,10.89 1.374,12.738 -0.836,11.497 -2.217,10.602 -4.529,9.103 -6.758,7.54 -6.101,4.054 -5.788,2.394 -7.597,1.349 -8.4,0 H -9 c -1.022,-0.69 -1.754,-0.217 -2.4,0.6 0.571,0.926 0.665,1.947 0.6,3 1.714,1.361 2.667,2.804 1.157,5.013 -0.934,1.366 -0.278,2.432 1.272,2.908 1.319,0.403 2.614,0.897 3.981,1.124 1.039,0.172 1.946,0.467 1.99,1.755 1.051,1.09 2.4,0.404 3.6,0.6 3.064,-2.526 4.764,-6.626 9,-7.8 C 12.15,5.55 14.169,3.969 15.6,1.8 15.4,1.6 15.2,1.4 15,1.2 13.888,2.812 12.577,3.28 10.67,2.378 7.313,0.792 3.569,0.747 0,0"
             style="fill:#b6b8b6;fill-opacity:1;fill-rule:nonzero;stroke:none"
             id="path90" /></g><g
           id="g92"
           transform="translate(276.6001,282.5287)"><path
             d="M 0,0 C -1.228,-0.979 -2.465,0.241 -3.697,-0.016 -4.881,-0.262 -5.993,-0.618 -6.6,-1.8 h -1.8 c 0.86,1.589 2.022,2.9 3.561,3.863 2.526,1.583 4.693,3.538 6.54,5.899 C 3.26,9.956 5.413,11.188 7.8,12 9.92,12.561 9.67,11.028 9.378,9.955 8.934,8.321 8.177,6.582 6.689,5.775 4,4.319 1.975,2.218 0,0"
             style="fill:#b7b8b6;fill-opacity:1;fill-rule:nonzero;stroke:none"
             id="path94" /></g><g
           id="g96"
           transform="translate(153.5942,435.5302)"><path
             d="m 0,0 c -2.707,-0.501 -4.666,-2.188 -6.224,-4.273 -0.94,-1.258 -1.861,-1.623 -3.269,-1.078 -0.861,0.334 -1.381,0.814 -0.969,1.788 0.507,1.2 0.393,2.923 2.359,2.95 2.461,0.033 2.592,1.214 1.509,3.012 3.06,-0.05 6.038,0.515 8.999,1.2 C 2.863,1.965 1.539,1.399 0.605,0.6 0.404,0.4 0.202,0.2 0,0"
             style="fill:#b6b8b6;fill-opacity:1;fill-rule:nonzero;stroke:none"
             id="path98" /></g><g
           id="g100"
           transform="translate(180.6001,470.9291)"><path
             d="m 0,0 c 1.744,-1.245 0.805,-1.982 -0.569,-2.333 -0.938,-0.24 -1.95,-0.148 -2.903,-0.536 -1.903,-0.776 -5.299,-0.329 -2.264,-4.197 1.149,-1.463 -0.068,-3.663 -2.664,-3.734 -1.064,2.167 0.315,4.943 -1.702,6.902 -0.093,0.09 0.237,0.934 0.451,0.972 C -6.315,-2.332 -3.639,0.443 0,0"
             style="fill:#b6b8b6;fill-opacity:1;fill-rule:nonzero;stroke:none"
             id="path102" /></g><g
           id="g104"
           transform="translate(193.2002,463.7289)"><path
             d="M 0,0 C -0.237,-0.145 -0.498,-0.445 -0.707,-0.412 -3.11,-0.035 -8.451,5.286 -9,7.8 -5.608,10.444 -5.611,10.443 -3.904,6.637 -2.847,4.282 -0.757,2.533 0,0"
             style="fill:#b6b8b6;fill-opacity:1;fill-rule:nonzero;stroke:none"
             id="path106" /></g><g
           id="g108"
           transform="translate(178.1973,449.9345)"><path
             d="m 0,0 c -4.918,-1.786 -9.356,-4.493 -13.797,-7.195 -0.821,1.052 0.245,1.632 0.6,2.39 0.89,0.783 1.718,1.669 3,1.8 1.869,0.261 3.411,1.178 4.8,2.4 0.453,1.094 1.372,1.256 2.4,1.2 C -1.916,0.814 -0.723,1.589 0,0"
             style="fill:#b6b8b6;fill-opacity:1;fill-rule:nonzero;stroke:none"
             id="path110" /></g><g
           id="g112"
           transform="translate(132,418.7289)"><path
             d="M 0,0 C 2.034,1.046 2.861,3.147 4.2,4.8 4.963,5.299 5.807,5.458 6.147,4.455 6.613,3.081 6.145,1.915 4.8,1.2 3.273,0.148 3.263,-2.673 0.6,-2.4 0.4,-1.6 0.2,-0.8 0,0"
             style="fill:#b7b8b6;fill-opacity:1;fill-rule:nonzero;stroke:none"
             id="path114" /></g><g
           id="g116"
           transform="translate(171.6001,457.1293)"><path
             d="M 0,0 C 0.8,-0.2 1.6,-0.4 2.4,-0.6 2.357,-2.022 2.633,-3.491 1.8,-4.8 0.988,-5.347 0.026,-5.625 -0.707,-6.332 -1.345,-6.946 -1.954,-6.723 -2.4,-6 c 0.763,1.051 1.407,2.12 1.217,3.528 C -1.322,-1.439 -1.102,-0.485 0,0"
             style="fill:#b6b8b6;fill-opacity:1;fill-rule:nonzero;stroke:none"
             id="path118" /></g><g
           id="g120"
           transform="translate(154.1997,436.1298)"><path
             d="m 0,0 c 0.6,1 1.2,2 1.8,3 2,1.399 4,2.799 6,4.199 C 8.319,6.762 9.167,7.31 9.596,6.601 6.46,4.31 3.447,1.84 0,0"
             style="fill:#b6b8b6;fill-opacity:1;fill-rule:nonzero;stroke:none"
             id="path122" /></g><g
           id="g124"
           transform="translate(178.1973,449.9345)"><path
             d="m 0,0 c -0.841,0.996 -1.988,0.448 -2.997,0.595 3.6,1.199 7.2,2.4 10.8,3.599 C 7.203,3.595 6.603,2.996 6.003,2.396 4.047,1.485 2.356,-0.09 0,0"
             style="fill:#b6b8b6;fill-opacity:1;fill-rule:nonzero;stroke:none"
             id="path126" /></g><g
           id="g128"
           transform="translate(177,455.329)"><path
             d="M 0,0 C 0.73,0.518 0.588,1.165 0.286,1.847 -0.148,2.826 0.057,3.623 1.077,4.042 1.802,4.341 2.496,3.968 3,3.517 3.967,2.649 2.864,2.198 2.511,1.583 2.225,1.083 2.033,0.53 1.8,0 1.2,-0.772 0.6,-0.772 0,0"
             style="fill:#b6b8b6;fill-opacity:1;fill-rule:nonzero;stroke:none"
             id="path130" /></g><g
           id="g132"
           transform="translate(169.2002,451.1293)"><path
             d="M 0,0 C 1.595,-0.283 2.482,1.911 4.2,1.2 1.9,-1.672 1.604,-1.756 0,0"
             style="fill:#b6b8b6;fill-opacity:1;fill-rule:nonzero;stroke:none"
             id="path134" /></g><g
           id="g136"
           transform="translate(163.7959,442.7304)"><path
             d="m 0,0 c -0.659,0.019 -1.366,-0.108 -1.796,0.599 l 3,1.8 C 1.004,1.602 0.804,0.805 0.604,0.008 0.403,0.006 0.202,0.003 0,0"
             style="fill:#b6b8b6;fill-opacity:1;fill-rule:nonzero;stroke:none"
             id="path138" /></g><g
           id="g140"
           transform="translate(172.7998,449.329)"><path
             d="M 0,0 C -1.063,-1.873 -2.741,-2.517 -4.8,-2.4 -3.2,-1.6 -1.6,-0.8 0,0"
             style="fill:#b6b8b6;fill-opacity:1;fill-rule:nonzero;stroke:none"
             id="path142" /></g><g
           id="g144"
           transform="translate(265.7275,286.7587)"><path
             d="m 0,0 c -3.37,-1.003 -5.828,-3.66 -9.042,-4.961 -5.774,-2.337 -11.524,-4.731 -17.285,-7.101 -2.959,-0.672 -5.935,-1.279 -8.871,-2.042 -1.305,-0.34 -2.508,-0.368 -3.734,0.154 -1.075,1.231 -0.697,2.63 -0.416,3.987 1.694,8.169 5.206,15.649 8.651,23.177 6.522,14.255 15.077,27.39 22.448,41.177 1.479,2.766 1.999,5.145 -0.483,7.504 -0.309,1.792 0.168,3.289 1.651,4.41 3.636,1.037 7.206,2.164 10.983,0.198 1.469,-0.764 3.344,-0.281 5.035,-0.302 2.792,-0.035 5.588,0.109 8.375,-0.062 5.64,-0.347 8.287,-2.612 9.586,-8.072 0.484,-2.035 0.767,-4.12 1.492,-6.096 0.826,-2.252 2.116,-3.864 4.836,-3.482 1.79,-0.389 1.838,-1.659 1.36,-3.003 C 31.505,36.838 27.958,28.424 21.796,21.416 19.433,18.728 17.614,15.625 15.189,12.981 10.649,8.035 5.004,4.395 0,0"
             style="fill:#67caf3;fill-opacity:1;fill-rule:nonzero;stroke:none"
             id="path146" /></g><g
           id="g148"
           transform="translate(225.6294,272.3295)"><path
             d="m 0,0 c -0.668,-0.983 -1.794,-0.861 -2.716,-0.935 -10.807,-0.856 -21.518,-0.375 -32.014,2.612 -0.654,0.186 -1.246,0.588 -1.867,0.889 -2.209,11.059 -3.265,22.304 -5.501,33.366 -1.734,8.579 -4.842,16.075 -13.046,20.43 -0.45,0.239 -0.789,0.607 -0.803,1.169 2.958,1.615 4.966,-0.454 6.841,-2.058 1.808,-1.548 3.626,-3.113 5.324,-4.868 1.205,3.951 2.331,4.268 6.029,2.111 5.352,-3.122 10.735,-6.235 16.87,-7.612 10.47,-2.351 20.417,-1.11 29.671,4.544 5.493,3.317 10.307,7.386 14.251,12.498 2.34,3.034 4.225,6.239 5.329,9.93 0.363,1.217 0.424,2.891 2.315,3.045 1.852,-1.479 1.11,-3.204 0.421,-4.885 C 29.352,65.961 26.755,62.138 24.39,58.213 17.264,46.39 10.962,34.124 5.121,21.65 2.615,16.3 0.066,10.77 -0.54,4.677 -0.703,3.041 -0.608,1.51 0,0"
             style="fill:#31b041;fill-opacity:1;fill-rule:nonzero;stroke:none"
             id="path150" /></g><g
           id="g152"
           transform="translate(130.7871,398.3412)"><path
             d="m 0,0 c 1.855,5.643 5.149,10.501 8.519,15.287 1.346,1.911 1.805,4.484 4.107,5.703 1.291,2.142 3.518,3.185 5.452,4.548 0.918,0.647 2.192,0.849 3.082,0.008 3.78,-3.576 8.367,-2.32 12.732,-2.189 2.748,0.083 3.259,-0.18 3.19,-2.617 -1.958,-1.735 -4.408,-1.551 -6.767,-1.726 -1.074,-0.079 -2.315,0.144 -2.844,-1.147 -0.557,-1.362 -0.087,-2.513 0.94,-3.508 0.932,-0.902 1.838,-1.829 2.81,-2.692 2.229,-1.98 1.93,-3.507 -0.983,-4.37 -1.455,-0.431 -2.849,-0.864 -4.04,-1.827 -2.301,-1.861 -2.22,-3.073 0.166,-4.932 0.956,-0.745 2.849,-0.934 2.555,-2.536 -0.272,-1.481 -2.051,-1.418 -3.233,-1.725 -4.365,-1.136 -8.244,-3.529 -12.569,-4.74 -3.975,-1.859 -6.355,-5.48 -9.278,-8.483 -1.223,-1.257 -2.242,-2.754 -2.868,-4.452 -1.933,-2.901 -2.124,-6.553 -4.078,-9.445 -1.652,-0.208 -2.101,0.75 -2.031,2.145 0.04,0.794 0.331,1.549 0.511,2.321 1.066,4.559 2.546,8.914 1.652,13.89 C -3.745,-8.208 -1.827,-3.977 0,0"
             style="fill:#ceeffc;fill-opacity:1;fill-rule:nonzero;stroke:none"
             id="path154" /></g><g
           id="g156"
           transform="translate(145.1875,302.895)"><path
             d="m 0,0 c -4.778,5.695 -9.417,11.481 -12.011,18.587 -1.177,1.857 -2.059,3.867 -2.777,5.924 -0.462,1.325 -0.621,2.867 0.86,3.753 1.364,0.817 2.532,-0.015 3.457,-0.947 3.451,-3.477 7.59,-4.481 12.428,-4.442 4.341,0.035 8.667,-1.062 13.055,-1.259 1.977,-0.089 3.96,-0.441 5.95,-0.352 4.225,0.19 7.25,-1.762 9.435,-5.202 0.761,-1.196 1.59,-2.283 2.819,-3.02 2.365,-2.684 2.456,-6.23 3.409,-9.421 0.553,-1.852 0.292,-3.944 0.629,-5.914 0.149,-0.872 0.147,-2.027 -0.806,-2.355 -1.13,-0.391 -1.782,0.64 -2.29,1.498 -0.815,1.375 -1.3,2.907 -1.9,4.382 C 31.558,2.954 30.514,3.55 28.542,3.28 24.225,2.69 19.964,1.408 15.522,1.99 14.716,2.095 13.958,1.705 13.252,1.333 11.573,0.451 9.974,0.604 8.476,1.701 6.437,3.192 4.104,2.744 1.836,2.807 -0.354,2.868 0.773,0.827 0,0"
             style="fill:#91dbf8;fill-opacity:1;fill-rule:nonzero;stroke:none"
             id="path158" /></g><g
           id="g160"
           transform="translate(145.1875,302.895)"><path
             d="m 0,0 c 0.037,0.761 -0.465,1.276 -0.807,1.881 -0.635,1.122 -0.148,1.804 1.044,1.717 3.166,-0.23 6.61,1.071 9.354,-1.703 0.525,-0.531 1.404,-0.886 2.223,-0.423 4.409,2.49 9.467,0.712 14.034,2.151 0.273,0.086 0.597,-0.005 0.895,0.022 5.37,0.484 5.394,0.494 7.34,-4.676 0.483,-1.284 0.769,-2.638 2.57,-3.615 -0.44,6.224 -1.127,11.934 -3.674,17.277 -2.04,2.66 -3.061,6.014 -5.699,8.284 -0.457,0.393 -0.85,1.232 0.238,1.631 2.746,-0.548 4.169,-2.676 5.306,-4.857 3.445,-6.605 5.459,-13.601 5.899,-21.115 0.354,-6.054 1.336,-12.067 2.391,-18.051 0.24,-1.358 0.724,-2.739 -0.254,-4.024 -0.424,-1.526 -1.298,-1.307 -2.53,-0.87 C 26.054,-22.023 15.273,-15.238 5.77,-6.406 3.673,-4.458 1.915,-2.145 0,0"
             style="fill:#81d5f6;fill-opacity:1;fill-rule:nonzero;stroke:none"
             id="path162" /></g><g
           id="g164"
           transform="translate(164.9644,437.9428)"><path
             d="m 0,0 c 4.144,4.062 9.533,5.929 14.618,8.354 5.634,2.687 11.695,3.705 17.735,4.872 1.254,0.242 2.453,0.771 3.678,1.168 0.849,0.57 1.754,0.705 2.721,0.352 0.306,-0.162 0.457,-0.415 0.457,-0.76 -0.221,-1.085 -1.043,-1.65 -1.9,-2.184 -4.139,-2.58 -6.643,-6.51 -8.831,-10.699 -0.634,-1.215 -0.828,-2.444 -0.093,-3.704 0.932,-1.597 2.09,-2.482 3.865,-1.164 1.976,1.467 4.218,1.686 6.553,1.481 2.459,-0.216 3.531,-1.249 3.308,-3.649 -0.365,-3.928 -2.497,-6.969 -5.737,-9.01 -2.822,-1.776 -5.683,-0.598 -8.129,1.079 -3.777,2.59 -7.864,4.163 -12.394,4.639 -0.682,1.445 0.844,1.186 1.318,1.721 -1.615,0.299 -3.086,-0.117 -4.512,-0.922 C 11.01,-9.356 9.531,-9.189 8.084,-7.814 6.297,-6.116 4.251,-4.666 3.299,-2.266 2.7,-0.756 1.12,-0.725 0,0"
             style="fill:#a5e2f8;fill-opacity:1;fill-rule:nonzero;stroke:none"
             id="path166" /></g><g
           id="g168"
           transform="translate(186.0474,277.394)"><path
             d="m 0,0 c -1.686,9.496 -2.343,19.136 -3.847,28.64 -1.015,6.41 -2.785,12.877 -7.811,17.69 -0.613,0.587 -1.103,1.476 -2.186,1.335 -1.044,-0.345 -1.81,0.346 -2.668,0.704 -5.611,0.883 -11.279,1.295 -16.89,2.139 -5.31,0.716 -9.509,3.536 -13.673,6.724 -6.108,4.675 -9.491,10.942 -11.316,18.117 -1.949,7.661 -0.043,14.956 2.955,22.032 0.31,0.733 0.722,1.421 0.974,2.178 0.649,1.175 1.189,2.431 2.316,3.269 2.451,1.895 3.988,4.655 6.33,6.666 1.202,1.032 2.272,2.216 3.692,2.976 2.382,1.217 4.977,1.902 7.415,2.986 1.458,0.022 2.188,-0.491 1.504,-2.043 -0.558,-0.894 -1.428,-1.405 -2.373,-1.731 -10.077,-3.474 -15.052,-11.371 -17.794,-20.962 -3.063,-10.713 -0.762,-20.401 6.871,-28.529 4.223,-4.498 9.783,-6.801 15.875,-7.639 4.139,-0.569 8.246,-1.517 12.474,-1.293 0.693,0.036 1.396,-0.132 1.885,-0.733 C -7.343,48.423 -3.766,40.712 -1.805,31.684 0.384,21.612 0.935,11.276 3.359,1.254 3.671,-0.036 3.746,-1.312 2.985,-2.498 1.06,-2.776 0.966,-0.867 0,0"
             style="fill:#2c9541;fill-opacity:1;fill-rule:nonzero;stroke:none"
             id="path170" /></g><g
           id="g172"
           transform="translate(170.2207,326.3154)"><path
             d="m 0,0 c 0.661,-0.419 1.322,-0.837 1.983,-1.257 2.64,-2.769 5.317,-5.516 5.964,-9.532 -1.58,0.21 -2.369,1.37 -3.049,2.608 -2.015,3.67 -5.004,5.238 -9.272,5.277 -5.642,0.05 -11.313,0.319 -16.873,1.554 -0.767,0.17 -1.6,0.223 -2.38,0.133 -4.892,-0.561 -9.056,0.721 -12.303,4.585 -0.64,0.761 -1.584,1.541 -2.584,1.148 -1.284,-0.505 -1.1,-1.924 -0.823,-2.905 0.618,-2.189 1.512,-4.3 2.293,-6.444 -3.046,2.883 -3.797,6.931 -5.185,10.601 -2.145,5.675 -3.237,11.633 -3.79,17.679 -0.395,0.538 -0.507,1.314 -0.017,1.597 0.946,0.547 1.457,-0.425 1.825,-1.029 2.016,-3.314 3.808,-6.765 5.35,-8.912 -1.43,1.846 -2.828,5.092 -4.073,8.419 -1.914,5.124 -1.837,10.334 -0.785,15.604 0.183,0.919 0.615,1.671 1.247,2.332 0.483,3.48 1.611,6.72 3.597,9.639 0.27,0.162 0.508,0.116 0.719,-0.109 -0.226,-2.129 -1.383,-3.933 -2.102,-5.885 -4.258,-11.57 -2.695,-22.335 5.006,-31.859 C -30.785,7.72 -24.795,4.033 -17.774,2.284 -11.912,1.033 -5.937,0.661 0,0"
             style="fill:#9cdef4;fill-opacity:1;fill-rule:nonzero;stroke:none"
             id="path174" /></g><g
           id="g176"
           transform="translate(164.9644,437.9428)"><path
             d="m 0,0 c 1.919,0.576 3.404,0.023 3.964,-1.935 0.842,-2.939 3.705,-4.003 5.433,-6.114 0.631,-0.77 1.834,-0.466 2.752,0.097 0.672,0.412 1.331,0.976 2.066,1.125 1.311,0.265 3.245,0.892 3.798,-0.449 0.688,-1.67 -1.987,-0.539 -2.338,-1.787 -0.09,-0.107 -0.178,-0.215 -0.265,-0.326 -2.607,-0.901 -1.675,-3.533 -2.572,-5.273 -3.182,-2.036 -6.232,-4.406 -10.34,-4.111 0.553,2.899 -1.586,2.083 -2.753,1.711 -2.732,-0.872 -5.44,0.525 -8.19,-0.226 -0.901,-0.245 -2.497,0.509 -3.183,1.312 -2.238,2.622 -4.222,1.66 -6.344,0.004 -1.169,-0.911 -2.384,-1.762 -3.579,-2.64 1.139,3.295 4.316,4.834 6.519,7.14 3.745,3.919 7.586,7.928 12.589,10.426 C -1.645,-0.647 -0.944,-0.048 0,0"
             style="fill:#b8e8fa;fill-opacity:1;fill-rule:nonzero;stroke:none"
             id="path178" /></g><g
           id="g180"
           transform="translate(225.6294,272.3295)"><path
             d="m 0,0 c -3.491,2.499 -1.274,5.772 -0.592,8.311 2.793,10.391 8.092,19.752 12.747,29.39 3.969,8.216 8.988,15.809 13.272,23.831 1.585,2.968 3.429,5.812 4.946,8.836 0.76,1.515 1.144,2.973 0.213,4.532 -0.223,0.191 -0.308,0.426 -0.232,0.715 0.31,0.512 0.714,0.839 1.359,0.683 2.725,-1.821 3.28,-3.219 1.602,-6.217 C 29.618,63.477 26.106,56.773 22.277,50.234 14.313,36.629 6.864,22.742 2.251,7.549 1.552,5.247 1.046,2.911 1.167,0.48 0.777,0.319 0.389,0.16 0,0"
             style="fill:#2b8d40;fill-opacity:1;fill-rule:nonzero;stroke:none"
             id="path182" /></g><g
           id="g184"
           transform="translate(127.749,367.7739)"><path
             d="m 0,0 c -2.987,-10.776 -0.31,-20.346 6.424,-29.238 -1.697,0.086 -2.402,0.998 -3.089,2.162 -1.914,3.247 -3.934,6.431 -5.956,9.613 -0.119,0.188 -0.228,1.296 -0.866,0.334 -0.142,-0.214 -0.046,-0.584 -0.06,-0.883 -1.445,5.737 -1.451,11.597 -1.099,17.416 0.475,7.846 2.162,15.527 4.107,23.127 0.728,2.845 1.635,5.693 3.577,8.036 C 3.152,29.444 2.843,28.435 2.406,27.395 0.525,22.918 -0.027,18.325 1.608,13.647 1.956,12.652 1.559,11.856 1.229,11.072 0.028,8.223 -0.423,5.173 -1.294,2.24 -1.707,0.851 -1.532,0.115 0,0"
             style="fill:#b6e5f0;fill-opacity:1;fill-rule:nonzero;stroke:none"
             id="path186" /></g><g
           id="g188"
           transform="translate(203.9868,452.3745)"><path
             d="M 0,0 -2.991,-0.038 C -1.8,1.711 1.125,1.136 1.818,3.552 9.354,3.55 16.931,3.98 24.396,2.865 c 4.937,-0.739 10.053,-1.08 14.619,-3.51 0.488,-0.65 0.539,-1.3 -10e-4,-1.949 -2.217,-0.475 -4.335,0.365 -6.37,0.852 C 24.303,0.253 15.865,0.896 7.33,0.981 4.8,1.007 2.487,-0.036 0,0"
             style="fill:#b1a5b3;fill-opacity:1;fill-rule:nonzero;stroke:none"
             id="path190" /></g><g
           id="g192"
           transform="translate(136.7998,419.9291)"><path
             d="m 0,0 c 0.059,1.243 2.983,2.964 -0.6,3.6 -0.481,0.681 -1.216,0.532 -1.9,0.615 -1.489,0.181 -5.157,6.971 -4.381,8.23 0.891,1.448 2.224,2.551 3.987,1.759 C -1.06,13.38 -1.877,11.91 -2.497,10.632 -2.708,10.196 -2.973,9.787 -3.278,9.252 -1.5,8.59 0.044,10.163 1.763,9.383 2.759,8.931 4.071,9.341 4.537,7.777 4.991,6.254 4.302,5.178 3.345,4.342 2.287,3.417 1.319,2.679 2.399,1.201 2.195,0.801 1.991,0.4 1.787,0 Z"
             style="fill:#b6b8b6;fill-opacity:1;fill-rule:nonzero;stroke:none"
             id="path194" /></g><g
           id="g196"
           transform="translate(276.6001,282.5287)"><path
             d="M 0,0 C 0.773,2.766 2.586,4.574 5.217,5.599 7.401,6.45 7.904,8.613 8.88,10.363 9.301,11.116 8.86,11.91 7.8,12 c 1.411,1.02 1.399,2.778 2.159,4.13 0.612,1.087 1.828,1.422 3.24,2.403 0,-1.678 0.022,-2.916 -0.007,-4.154 -0.025,-1.125 0.03,-2.344 -1.758,-1.892 -0.504,0.128 -1.018,-0.036 -1.096,-0.68 -0.075,-0.626 0.377,-0.793 0.874,-0.991 2.007,-0.797 2.909,-2.306 3.285,-4.45 C 14.83,4.47 15.57,2.567 17.943,1.726 13.67,1.663 13.562,-2.734 10.843,-4.438 8.259,-6.058 7.387,-6.339 6.084,-3.652 5.508,-2.464 2.265,-0.517 0,0"
             style="fill:#b6b8b6;fill-opacity:1;fill-rule:nonzero;stroke:none"
             id="path198" /></g><g
           id="g200"
           transform="translate(285.5991,422.934)"><path
             d="m 0,0 c -0.797,0.006 -1.595,0.013 -2.393,0.019 -1.3,0.203 -2.018,1.235 -2.82,2.083 -9.095,9.622 -20.014,16.555 -32.035,21.898 -1.135,0.504 -2.493,0.792 -3.108,2.112 0.653,1.725 1.92,1.246 3.156,0.883 l 0.001,-0.001 c 2.099,-0.55 4.108,-1.327 5.998,-2.4 0.258,-0.484 0.707,-0.588 1.201,-0.601 4.137,-2.17 8.11,-4.614 11.999,-7.198 C -11.516,11.716 -5.26,6.392 0,0"
             style="fill:#b1a5b3;fill-opacity:1;fill-rule:nonzero;stroke:none"
             id="path202" /></g><g
           id="g204"
           transform="translate(267.5981,439.7289)"><path
             d="M 0,0 C -4.254,1.975 -8.461,4.029 -12,7.198 -7.214,6.108 -3.479,3.268 0,0"
             style="fill:#aaabad;fill-opacity:1;fill-rule:nonzero;stroke:none"
             id="path206" /></g><g
           id="g208"
           transform="translate(248.3989,449.9286)"><path
             d="m 0,0 c -1.126,-0.02 -2.354,0.224 -2.964,-1.138 -1.227,-0.467 -1.853,0.327 -2.455,1.17 0.007,0.59 0.014,1.179 0.022,1.769 C -3.348,1.952 -1.681,0.955 0,0"
             style="fill:#aaabad;fill-opacity:1;fill-rule:nonzero;stroke:none"
             id="path210" /></g><g
           id="g212"
           transform="translate(254.3979,447.5278)"><path
             d="M 0,0 C -2.096,0.559 -4.23,1.021 -5.998,2.4 -3.546,2.731 -1.67,1.622 0,0"
             style="fill:#aaabad;fill-opacity:1;fill-rule:nonzero;stroke:none"
             id="path214" /></g><g
           id="g216"
           transform="translate(290.8198,437.3154)"><path
             d="m 0,0 c -0.14,-0.565 -0.423,-0.975 -0.99,-0.9 -0.662,0.088 -0.585,0.678 -0.57,1.147 0.015,0.424 0.266,0.804 0.706,0.732 C -0.352,0.896 -0.021,0.518 0,0"
             style="fill:#b7b9b7;fill-opacity:1;fill-rule:nonzero;stroke:none"
             id="path218" /></g><g
           id="g220"
           transform="translate(265.7275,286.7587)"><path
             d="m 0,0 c 2.313,3.214 5.812,5.083 8.691,7.655 9.892,8.831 18.087,18.87 22.753,31.482 1.077,2.913 3.234,5.5 2.537,8.913 -0.939,0.823 0.003,1.382 0.365,1.889 0.895,1.253 1.442,2.609 1.653,4.122 4.469,17.154 3.237,34.04 -2.229,50.767 -0.758,2.32 -2.744,4.274 -2.195,7.003 0.112,0.128 0.224,0.256 0.337,0.385 3.527,-4.29 4.423,-9.647 5.891,-14.749 1.902,-6.612 2.629,-13.451 2.95,-20.272 C 40.961,72.771 40.27,68.291 39.826,63.852 39.091,56.489 36.614,49.521 34.164,42.648 31.403,34.903 27.767,27.469 22.205,21.201 19.17,17.781 16.832,13.816 13.492,10.61 9.601,6.875 5.094,3.912 1.132,0.283 0.88,0.052 0.383,0.088 0,0"
             style="fill:#a2a8a5;fill-opacity:1;fill-rule:nonzero;stroke:none"
             id="path222" /></g><g
           id="g224"
           transform="translate(242.9795,449.9609)"><path
             d="m 0,0 c 1.036,0.066 1.569,-0.922 2.455,-1.171 4.18,-1.258 7.99,-3.347 11.799,-5.4 9.837,-5.302 18.693,-11.875 25.973,-20.437 0.519,-1.395 2.346,-1.915 2.416,-3.611 -0.134,-0.05 -0.269,-0.101 -0.403,-0.152 -1.286,0.235 -2.048,1.209 -2.815,2.106 -7.082,8.285 -15.443,14.957 -25.113,19.99 -14.527,8.699 -30.467,11.219 -47.079,10.804 -1.469,0.18 -2.874,-0.286 -4.312,-0.436 -0.68,-0.016 -1.331,0.065 -1.841,0.584 0,0 -0.072,0.136 -0.073,0.136 1.894,1.529 4.164,1.728 6.452,1.745 8.94,0.068 17.793,-0.531 26.519,-2.768 C -4.051,0.884 -1.971,0.64 0,0"
             style="fill:#a2a8a5;fill-opacity:1;fill-rule:nonzero;stroke:none"
             id="path226" /></g><g
           id="g228"
           transform="translate(289.8384,413.371)"><path
             d="M 0,0 C 3.471,-4.327 7.405,-8.403 7.8,-14.397 7.801,-14.396 7.667,-14.508 7.667,-14.508 4.99,-9.802 1.768,-5.402 -0.279,-0.343 -0.187,-0.229 -0.093,-0.114 0,0"
             style="fill:#a2a8a5;fill-opacity:1;fill-rule:nonzero;stroke:none"
             id="path230" /></g><g
           id="g232"
           transform="translate(285.6226,419.3422)"><path
             d="m 0,0 c 2.114,-1.49 3.445,-3.533 4.215,-5.971 0.001,0 -0.116,-0.111 -0.116,-0.111 -0.646,-0.153 -1.087,0.187 -1.493,0.615 -0.769,1.858 -3.104,2.914 -2.752,5.35 z"
             style="fill:#a2a8a5;fill-opacity:1;fill-rule:nonzero;stroke:none"
             id="path234" /></g><g
           id="g236"
           transform="translate(302.1719,340.0639)"><path
             d="m 0,0 c 0.326,-2.292 -1.476,-3.584 -2.465,-5.256 -3.573,-1.052 -5.077,-0.35 -6.273,3.292 -0.744,2.267 -1.179,4.639 -1.698,6.976 -0.991,4.465 -2.626,6.242 -7.154,6.754 -3.259,0.368 -6.58,0.18 -9.874,0.241 -2.687,0.05 -5.399,-0.142 -7.855,1.369 -0.876,0.539 -1.954,0.546 -2.902,0.112 -1.766,-0.809 -3.689,-0.783 -5.532,-1.172 -0.152,0.256 -0.241,0.533 -0.281,0.828 -0.194,1.911 0.673,2.987 2.567,3.26 1.085,0.156 2.042,0.707 3.079,1.021 0.786,0.199 1.651,0.367 2.361,0.043 4.737,-2.164 9.77,-1.751 14.708,-1.55 9.764,0.398 13.701,-4.219 15.58,-12.981 0.126,-0.585 0.147,-1.187 0.25,-1.776 0.256,-1.466 0.876,-2.24 2.428,-1.284 C -2.072,0.485 -1.052,0.77 0,0"
             style="fill:#2b9042;fill-opacity:1;fill-rule:nonzero;stroke:none"
             id="path238" /></g><g
           id="g240"
           transform="translate(257.3428,348.6274)"><path
             d="M 0,0 C -0.399,-0.18 -0.799,-0.36 -1.198,-0.54 -2.525,1.471 -1.167,2.984 -0.254,4.582 0.355,5.116 0.883,4.839 1.396,4.413 1.29,4.193 1.183,3.974 1.076,3.753 0.717,2.501 0.358,1.25 0,0"
             style="fill:#91c8da;fill-opacity:1;fill-rule:nonzero;stroke:none"
             id="path242" /></g><g
           id="g244"
           transform="translate(169.7803,329.9199)"><path
             d="m 0,0 c -8.186,-0.043 -16.38,0.374 -23.785,4.196 -9.79,5.054 -14.901,13.336 -15.196,24.425 -0.323,12.118 4.569,21.712 14.136,29.055 2.261,1.735 5.407,1.459 7.479,3.516 1.806,1.943 4.044,2.511 6.674,2.712 5.533,0.425 10.433,-0.664 14.619,-4.483 1.392,-1.27 3.006,-2.29 4.539,-3.4 C 9.292,54.618 8.084,53.614 7.769,52.431 1.371,41.648 -0.569,30.187 3.265,18.156 c 5.589,-17.539 20.767,-30.08 39.806,-30.59 6.751,-0.181 13.099,1.072 19.183,3.916 0.982,0.459 2.004,1.007 3.105,0.247 -3.781,-3.193 -8.481,-4.457 -13.082,-5.404 C 39.974,-16.209 28.875,-12.461 18.49,-6.1 13.615,-3.113 13.583,-3.055 12.977,-8.754 10.86,-6.911 8.672,-5.365 6.948,-3.409 5.029,-1.234 2.818,-0.115 0,0"
             style="fill:#42ba3c;fill-opacity:1;fill-rule:nonzero;stroke:none"
             id="path246" /></g><g
           id="g248"
           transform="translate(235.1392,321.6494)"><path
             d="m 0,0 c -4.227,-1.437 -8.219,-3.55 -12.674,-4.333 -10.398,-1.826 -20.079,-0.112 -29.451,4.9 -20.979,11.218 -29.756,39.785 -16.012,60.5 1.407,1.333 1.781,3.103 2.074,4.909 3.482,5.162 8.47,8.574 13.666,11.75 1.933,0.324 3.895,0.574 5.34,2.132 4.764,2.297 9.825,3.129 15.066,3.077 1.295,-0.013 2.59,0.021 3.884,0.008 0.993,-0.08 1.994,0.018 2.985,-0.094 3.916,-0.627 7.767,-1.512 11.455,-3.015 0.577,-0.22 1.106,-0.532 1.626,-0.859 7.777,-4.352 14.6,-9.725 19.337,-17.483 1.693,-2.774 2.47,-5.889 3.89,-8.753 1.479,-4.838 2.674,-9.715 2.542,-14.831 -0.057,-2.199 -0.431,-4.293 -1.469,-6.246 0.052,-1.854 -1.734,-3.267 -1.253,-5.224 0.023,-0.285 0.047,-0.571 0.071,-0.857 -0.859,-0.386 -0.921,-1.264 -1.152,-1.99 C 16.619,13.158 9.81,5.701 0.365,0.461 0.207,0.374 0.12,0.157 0,0"
             style="fill:#bbb8bb;fill-opacity:1;fill-rule:nonzero;stroke:none"
             id="path250" /></g><g
           id="g252"
           transform="translate(198.0225,400.7089)"><path
             d="m 0,0 c -1.295,-2.044 -3.312,-1.911 -5.333,-1.764 -2.311,1.299 -3.615,3.651 -5.573,5.327 -1.766,1.511 -7.01,2.397 -9.062,1.427 -0.783,-0.37 -1.231,-1.023 -1.488,-1.795 -1.447,-4.343 -4.637,-6.859 -8.701,-8.349 4.19,-1.178 7.74,-3.515 10.993,-6.363 0.455,-0.397 0.78,-0.915 0.653,-1.585 0.006,-2.062 -0.654,-3.783 -2.509,-4.89 -0.21,1.249 1.291,1.782 1.241,2.965 -5.633,7.22 -14.6,10.105 -23.374,7.428 -1.244,-0.379 -2.596,-0.047 -3.752,-0.743 -2.265,-1.313 -5.025,-1.506 -7.144,-3.15 -0.401,-0.203 -0.805,-0.211 -1.212,-0.015 -0.322,0.734 0.202,0.993 0.709,1.264 5.343,1.77 10.254,4.694 15.861,5.63 -0.107,1.264 -1.061,1.071 -1.572,1.428 -1.469,1.031 -3.343,1.851 -3.331,3.92 0.013,2.199 2.06,2.962 3.569,4.052 0.778,0.562 1.692,0.535 2.553,0.755 0.949,0.243 2.124,0.377 2.37,1.517 0.246,1.137 -1.015,1.31 -1.623,1.9 -1.003,0.975 -1.946,2.017 -3.006,2.923 -1.254,1.072 -1.43,2.438 -0.968,3.804 0.48,1.416 1.775,1.738 3.19,1.662 2.392,-0.129 4.708,0.272 6.949,1.113 3.582,1.06 6.98,2.53 10.129,4.554 0.526,2.012 -0.007,4.647 3.042,5.176 l 0.005,-0.019 c 4.853,0.879 8.68,-1.527 12.541,-3.879 6.124,-3.73 12.339,-0.626 13.226,6.558 0.294,2.38 -0.486,3.634 -3.094,3.438 -1.881,-0.143 -3.788,0.078 -5.396,-1.283 -1.181,-1 -2.48,-1.831 -3.976,-0.464 -1.514,1.383 -2.485,3.122 -1.625,5.074 2.069,4.697 4.765,8.991 9.235,11.838 0.934,0.594 1.883,1.128 2.509,2.076 0.574,0.031 1.147,0.064 1.719,0.096 0.228,-2.064 -1.471,-2.656 -2.768,-3.422 -3.954,-2.336 -6.368,-5.936 -8.373,-9.89 -0.563,-1.11 -0.839,-2.322 0.157,-3.341 1.008,-1.031 2.042,-0.375 2.98,0.198 1.91,1.166 4.018,1.062 6.105,0.983 3.436,-0.13 5.147,-1.991 4.267,-5.229 C 8.864,26.289 6.587,22.242 1.696,20.4 c -1.44,-0.293 -2.807,0.084 -4.177,0.44 -2.221,0.727 -3.915,2.368 -5.938,3.447 -1.689,0.9 -3.382,1.705 -5.317,1.92 -2.251,0.249 -3.935,-0.337 -4.603,-2.754 -0.489,-1.766 -1.748,-2.832 -3.39,-3.559 -4.746,-2.102 -9.392,-4.424 -14.778,-4.546 -2.117,-0.048 -2.432,-1.027 -1.094,-2.683 1.067,-1.319 2.469,-2.349 3.449,-3.746 1.549,-2.209 1.076,-3.681 -1.504,-4.56 -1.411,-0.481 -2.941,-0.625 -4.196,-1.533 -1.967,-1.423 -1.929,-2.96 0.104,-4.213 5.783,-3.562 13.383,-1.228 15.767,5.026 1.082,2.839 2.99,4.024 5.834,4.316 4.91,0.505 8.768,-1.192 11.761,-5.122 C -5.421,1.566 -4.71,-0.272 -2.538,0.031 -1.69,0.188 -0.834,0.724 0,0"
             style="fill:#6dc9a0;fill-opacity:1;fill-rule:nonzero;stroke:none"
             id="path254" /></g><g
           id="g256"
           transform="translate(143.4702,390.4658)"><path
             d="m 0,0 -0.65,-1.187 c -2.719,-3.277 -6.195,-5.877 -8.51,-9.514 -1.21,-0.4 -1.079,-2.023 -2.245,-2.461 -0.24,0.036 -0.479,0.072 -0.719,0.108 C -9.337,-7.538 -5.172,-3.301 0,0"
             style="fill:#b6e5f0;fill-opacity:1;fill-rule:nonzero;stroke:none"
             id="path258" /></g><g
           id="g260"
           transform="translate(151.1172,392.3666)"><path
             d="m 0,0 c 9.327,4.942 19.678,2.363 26.722,-4.683 0.552,-0.552 1.233,-1.141 0.404,-2.001 -2.25,-0.24 -3.456,1.645 -4.674,2.826 C 17.593,0.854 11.758,1.087 5.621,0.568 3.955,0.427 2.986,-1.243 1.297,-1.255 1.967,0.303 0.71,-0.131 0,0"
             style="fill:#30a146;fill-opacity:1;fill-rule:nonzero;stroke:none"
             id="path262" /></g><g
           id="g264"
           transform="translate(170.2207,326.3154)"><path
             d="M 0,0 C -6.013,0.073 -11.982,0.494 -17.774,2.284 -11.863,1.417 -5.843,1.398 0,0"
             style="fill:#91dbf8;fill-opacity:1;fill-rule:nonzero;stroke:none"
             id="path266" /></g><g
           id="g268"
           transform="translate(134.3101,379.7646)"><path
             d="M 0,0 C 1.871,4.036 5.351,6.631 8.51,9.515 8.895,9.494 9.279,9.474 9.664,9.453 6.93,7.18 4.277,4.835 2.202,1.905 1.641,1.112 1.021,0.301 0,0"
             style="fill:#30a146;fill-opacity:1;fill-rule:nonzero;stroke:none"
             id="path270" /></g><g
           id="g272"
           transform="translate(180.6333,428.9003)"><path
             d="M 0,0 C -2.406,-0.909 -2.286,-3.301 -3.042,-5.178 -2.848,-2.969 -3.905,-0.026 0,0"
             style="fill:#a5e2f8;fill-opacity:1;fill-rule:nonzero;stroke:none"
             id="path274" /></g><g
           id="g276"
           transform="translate(302.1719,340.0639)"><path
             d="m 0,0 c -0.926,-0.453 -2,0.059 -2.965,-0.918 -1.74,-1.762 -3.153,-1.218 -3.291,1.337 -0.134,2.462 -0.9,4.679 -1.661,6.937 -1.618,4.803 -5.481,7.561 -10.526,7.725 -4.872,0.158 -9.78,-0.568 -14.615,0.574 -1.893,0.448 -3.611,1.738 -5.712,1.201 0.961,2.339 2.824,1.366 4.271,0.947 2.767,-0.8 5.448,-0.967 8.601,0.021 -2.112,1.938 -1.315,3.91 -0.456,5.841 0.702,1.574 1.035,3.195 1.195,4.91 0.347,3.694 1.172,7.245 2.937,10.597 2.233,4.244 2.592,9.017 2.919,13.664 0.456,6.464 -0.222,12.974 0.384,19.452 0.086,0.909 -0.263,1.77 -0.41,2.653 -0.156,0.932 -0.139,1.849 0.892,2.291 1,0.429 2.013,0.372 2.707,-0.547 0.722,-0.956 1.458,-1.896 2.247,-2.795 l 1.033,-0.693 c 1.615,-2.569 3.351,-5.07 4.808,-7.725 1.168,-2.128 1.996,-4.441 2.975,-6.673 C -1.984,52.16 0.291,45.41 1.625,38.34 3.949,26.025 3.549,13.815 0.668,1.656 0.533,1.083 0.227,0.551 0,0"
             style="fill:#30a341;fill-opacity:1;fill-rule:nonzero;stroke:none"
             id="path278" /></g><g
           id="g280"
           transform="translate(198.0225,400.7089)"><path
             d="m 0,0 c -0.775,-0.218 -1.55,-0.436 -2.325,-0.654 -1.542,-0.186 -1.619,1.251 -2.133,2.066 -2.511,3.976 -6.355,6.025 -10.649,7.237 -3.624,1.023 -8.038,-1.385 -9.395,-5.026 -2.369,-6.352 -8.956,-6.853 -13.756,-5.171 -1.058,0.371 -1.974,1.149 -2.019,2.374 -0.043,1.181 1.019,1.613 1.882,2.099 0.967,0.544 2.09,0.668 3.102,1.078 2.717,1.102 3.193,2.709 1.607,5.167 -3.177,4.924 -3.123,4.745 2.369,6.425 5.519,1.688 11.133,3.37 14.664,8.595 1.09,1.614 2.699,1.792 4.526,1.066 2.144,-0.851 4.15,-1.938 6.177,-3.017 1.037,-0.553 2.119,-1.754 3.519,-0.631 1.399,-0.201 2.798,-0.403 4.197,-0.606 0.676,-0.151 -0.852,-1.249 0.211,-0.853 4.133,1.544 6.942,4.521 8.479,8.676 0.83,2.243 1.273,4.429 -0.683,6.383 -1.873,1.871 -4.862,2.399 -7.49,1.344 -1.354,-0.543 -2.728,-2.364 -4.195,-0.496 -1.273,1.619 -0.147,3.188 0.695,4.675 1.606,2.836 3.893,5.063 6.511,6.893 2.177,1.521 4.087,3.461 6.62,4.457 17.079,0.748 33.352,-1.964 48.104,-11.203 0.118,-0.301 0.078,-0.594 -0.143,-0.817 -2.38,-2.414 -2.465,-2.671 0.058,-4.787 1.994,-1.672 2.725,-3.349 1.144,-5.657 -1.007,-1.468 -0.378,-2.037 1.21,-2.34 1.459,-0.278 2.882,-0.821 4.252,-1.429 1.503,-0.668 2.34,-1.856 2.319,-3.528 -0.01,-0.915 -0.235,-1.854 -1.044,-2.38 -0.908,-0.59 -1.718,0.023 -2.465,0.511 -1.477,0.964 -3.054,3.197 -4.441,2.5 -1.686,-0.847 0.016,-3.267 -0.261,-4.97 -1.091,-6.718 0.52,-13.549 -0.906,-20.26 -0.309,-1.458 -0.035,-2.9 2.06,-2.787 1.324,0.072 1.797,-0.802 1.834,-1.885 0.078,-2.228 0.777,-4.682 -1.95,-6.052 -0.695,-0.35 -0.756,-1.113 -0.731,-1.847 0.033,-0.961 0.483,-2.152 -0.683,-2.674 -1.171,-0.524 -2.073,0.307 -2.901,1.062 -0.203,0.186 -0.298,0.511 -0.099,0.508 -0.531,-4.601 3.571,-8.461 2.043,-13.388 -1.195,0.935 -0.887,2.505 -1.771,3.517 -2.138,3.553 -3.209,7.614 -5.781,11.009 -4.243,5.601 -9.546,9.794 -15.603,13.173 -0.509,0.284 -0.961,0.672 -1.44,1.012 1.523,4.545 0.486,6.318 -4.477,7.292 C 26.046,7.484 22.462,6.034 19.29,3.347 14.044,2.862 8.709,3.198 3.604,1.407 2.381,0.977 1.146,0.614 0,0"
             style="fill:#36b640;fill-opacity:1;fill-rule:nonzero;stroke:none"
             id="path282" /></g><g
           id="g284"
           transform="translate(255.5659,374.8837)"><path
             d="m 0,0 c 1.111,-0.677 1.121,-1.97 1.803,-2.968 0,0.684 0.262,1.529 -0.042,2.027 -2.164,3.549 -1.367,8.135 -4.08,11.465 -0.277,0.34 -0.415,0.681 -0.08,1.045 0.424,0.462 0.907,0.374 1.317,0.014 0.371,-0.325 0.749,-0.691 0.978,-1.117 0.562,-1.048 1.505,-2.064 2.525,-1.674 1.323,0.504 -0.046,1.685 0.013,2.584 0.06,0.922 0.066,1.748 1.018,2.306 1.652,0.968 2.685,4.279 1.927,5.907 -0.174,0.374 -0.385,0.768 -0.871,0.552 -3.754,-1.668 -3.4,1.532 -3.153,3.157 0.798,5.227 0.322,10.459 0.635,15.658 0.232,3.86 -0.672,7.832 0.559,11.978 1.962,-1.408 3.658,-2.585 5.305,-3.827 0.643,-0.483 1.459,-1.385 2.017,-0.947 0.692,0.541 1.113,1.682 0.781,2.713 -0.271,0.84 -0.602,1.959 -1.576,2.024 -2.081,0.141 -3.628,1.902 -6.087,1.342 -1.769,-0.404 -1.343,1.748 -0.698,2.537 2.263,2.772 1.512,4.478 -1.218,6.477 -2.823,2.068 -2.342,3.376 1.402,5.45 9.366,-4.474 16.985,-11.189 23.986,-18.698 1.143,-1.227 2.299,-2.442 3.449,-3.663 0.69,-1.99 2.733,-3.154 3.213,-5.272 -1.186,0.456 -1.828,1.49 -2.596,2.403 -0.694,0.825 -1.647,0.78 -2.426,0.277 -0.782,-0.505 -0.349,-1.327 0.048,-1.856 1.455,-1.938 -0.006,-3.87 0.042,-5.798 0.127,-5.191 0.118,-10.388 0.019,-15.58 C 28.133,14.437 27.676,10.255 26.182,6.552 24.16,1.544 22.057,-3.3 22.109,-8.831 c 0.009,-0.905 -0.733,-1.829 -1.169,-2.725 -1.072,-2.199 -2.026,-4.349 2.291,-5.293 -4.064,-1.939 -7.44,-2.386 -10.921,-1.047 -1.563,0.601 -2.995,0.965 -4.474,-0.067 -0.598,-0.739 -1.424,-1.208 -2.319,-1.13 -2.174,0.188 -2.358,-1.162 -2.345,-2.751 -0.446,0.091 -0.893,0.181 -1.339,0.272 C 3.19,-14.214 1.833,-7.087 0,0"
             style="fill:#33af43;fill-opacity:1;fill-rule:nonzero;stroke:none"
             id="path286" /></g><g
           id="g288"
           transform="translate(209.9365,452.7895)"><path
             d="m 0,0 c -2.767,-3.448 -7.092,-5.004 -10.016,-8.321 -1.341,-1.521 -2.303,-3.229 -3.391,-4.875 -0.546,-0.825 -0.697,-1.917 0.195,-2.729 0.951,-0.867 1.543,-0.007 2.279,0.503 2.722,1.882 6.153,1.616 8.854,-0.43 2.782,-2.107 2.51,-4.734 1.428,-7.488 -1.66,-4.227 -4.244,-7.611 -8.754,-9.143 -1.143,-0.389 -2.248,-0.632 -3.545,0.11 0.66,1.208 2.249,0.232 2.802,1.295 3.915,1.924 6.146,5.276 7.551,9.213 1.188,3.331 -0.234,5.272 -3.716,5.262 -2.071,-0.005 -4.203,0.166 -6.003,-1.268 -0.93,-0.74 -1.885,-1.586 -3.142,-0.461 -1.183,1.061 -1.576,2.423 -0.982,3.787 1.927,4.428 4.447,8.462 8.697,11.061 1.369,0.838 2.739,1.604 3.584,3.029 C -2.794,-0.1 -1.454,0.468 0,0"
             style="fill:#2d9742;fill-opacity:1;fill-rule:nonzero;stroke:none"
             id="path290" /></g><g
           id="g292"
           transform="translate(213.7466,323.3032)"><path
             d="M 0,0 C -20.89,-0.239 -38.749,17.595 -38.343,38.473 -37.921,60.16 -22.328,76.365 -0.209,76.617 22.002,76.87 38.644,59.331 38.697,38.046 38.746,18.08 21.235,-0.369 0,0"
             style="fill:#ffffff;fill-opacity:1;fill-rule:nonzero;stroke:none"
             id="path294" /></g><g
           id="g296"
           transform="translate(179.5112,387.6074)"><path
             d="m 0,0 c -1.894,1.768 -3.917,3.329 -6.156,4.678 -2.133,1.285 -4.285,2.421 -6.802,2.816 0.295,1.306 1.222,1.212 1.89,1.467 3.541,1.354 6.267,3.595 7.337,7.328 0.594,2.073 1.728,2.642 3.808,2.961 6.708,1.029 9.974,-3.236 13.101,-7.913 C 12.122,9.809 10.436,9.021 8.938,8.156 5.33,6.074 3.017,2.669 0,0"
             style="fill:#b5e7f9;fill-opacity:1;fill-rule:nonzero;stroke:none"
             id="path298" /></g><g
           id="g300"
           transform="translate(217.312,404.0561)"><path
             d="m 0,0 c 2.755,4.571 11.436,5.927 15.43,2.409 2.405,-2.119 2.406,-4.23 0,-6.387 -0.488,0.195 -0.976,0.39 -1.464,0.585 C 12.467,1.119 10.464,2.172 5.888,0.738 4.855,0.414 3.75,0.278 2.8,-0.3 1.872,-0.156 0.883,-0.574 0,0"
             style="fill:#2f9c47;fill-opacity:1;fill-rule:nonzero;stroke:none"
             id="path302" /></g><g
           id="g304"
           transform="translate(220.1123,403.7563)"><path
             d="M 0,0 C 1.817,2.014 4.212,2.625 6.755,2.446 10.223,2.203 11.546,0.414 11.167,-3.093 7.613,-1.45 3.772,-0.849 0,0"
             style="fill:#8ed5e4;fill-opacity:1;fill-rule:nonzero;stroke:none"
             id="path306" /></g><g
           id="g308"
           transform="translate(195.5913,422.3173)"><path
             d="m 0,0 c -0.672,-2.209 -2.045,-1.005 -3.07,-0.51 -2.323,1.123 -4.49,2.525 -6.903,3.522 -1.746,0.722 -2.897,0.449 -3.842,-0.974 -4.002,-6.024 -10.487,-7.5 -16.831,-9.186 -0.983,-0.262 -2.083,-0.22 -2.485,-1.281 -0.357,-0.938 0.668,-1.335 1.168,-1.886 4.038,-4.459 3.373,-6.754 -2.352,-8.452 -1.154,-0.342 -3.042,-0.64 -2.964,-2.016 0.079,-1.402 1.678,-1.824 3.194,-2.095 6.628,-1.189 10.229,1.095 11.778,6.426 0.893,3.073 7.525,5.474 10.753,4.168 5.006,-2.023 9.31,-4.856 11.66,-9.978 -1.221,-1.048 -2.015,-0.16 -2.762,0.66 -1.209,1.326 -2.359,2.706 -3.546,4.051 -3.003,3.405 -6.846,3.748 -10.978,2.973 -1.824,-0.342 -2.864,-1.386 -3.504,-3.223 -2.521,-7.247 -11.462,-9.978 -17.746,-5.529 -2.063,1.461 -2.112,3.319 -0.025,4.854 1.293,0.951 2.789,1.446 4.398,1.762 3.058,0.601 3.416,1.897 1.275,4.232 -1.08,1.177 -2.235,2.285 -3.362,3.418 -0.647,0.651 -1.306,1.325 -0.966,2.341 0.344,1.028 1.3,1.257 2.192,1.212 5.867,-0.298 10.761,2.598 15.884,4.75 1.491,0.625 2.447,1.649 2.583,3.35 0.172,2.136 1.613,2.789 3.504,2.912 C -8.617,5.783 -5.43,3.198 -2.038,1.152 -1.367,0.748 -0.867,0.059 0,0"
             style="fill:#2d9742;fill-opacity:1;fill-rule:nonzero;stroke:none"
             id="path310" /></g><g
           id="g312"
           transform="translate(265.792,407.9413)"><path
             d="m 0,0 c 0,-2.292 0.002,-4.583 -0.001,-6.875 -0.001,-1.286 -0.513,-2.149 -1.93,-2.076 -1.265,0.066 -1.651,0.934 -1.652,2.057 -0.002,4.583 -0.002,9.166 0,13.749 0,1.286 0.51,2.148 1.931,2.075 C -0.383,8.864 -0.004,7.996 -0.001,6.875 0.002,4.583 0,2.292 0,0"
             style="fill:#36b640;fill-opacity:1;fill-rule:nonzero;stroke:none"
             id="path314" /></g><g
           id="g316"
           transform="translate(687.2021,283.2783)"><path
             d="m 0,0 c 0,1.052 0.001,2.104 0,3.156 -0.008,60.595 -0.017,121.19 -0.023,181.784 -0.001,3.553 1.031,4.876 3.78,4.891 3.142,0.018 4.347,-1.371 4.347,-5.019 0,-66.195 -10e-4,-132.389 -0.005,-198.583 0,-2.49 0.382,-5.203 -2.837,-6.189 -3.044,-0.934 -5.172,0.183 -7.206,3.838 -8.065,14.489 -16.107,28.989 -24.143,43.492 -12.635,22.799 -25.238,45.615 -37.892,68.404 -9.502,17.113 -19.074,34.187 -28.593,51.29 -3.691,6.629 -7.311,13.296 -10.994,19.928 -0.555,0.999 -1.282,1.902 -2.675,2.718 -0.14,-0.994 -0.401,-1.989 -0.401,-2.983 -0.005,-59.995 0.011,-119.99 0.018,-179.984 0,-1.297 0.096,-2.633 -0.171,-3.883 -0.504,-2.37 -2.294,-3.163 -4.52,-2.976 -2.063,0.174 -3.292,1.333 -3.396,3.483 -0.044,0.897 -0.024,1.799 -0.024,2.699 -0.001,66.094 -0.001,132.188 -0.007,198.282 0,2.229 -0.227,4.555 2.619,5.359 2.907,0.822 5.496,-0.297 7.079,-3.114 2.641,-4.702 5.227,-9.436 7.844,-14.152 7.854,-14.145 15.721,-28.282 23.566,-42.432 14.385,-25.944 28.747,-51.901 43.141,-77.84 9.207,-16.593 18.446,-33.168 27.695,-49.737 0.524,-0.938 1.269,-1.752 1.91,-2.624 z"
             style="fill:#231f20;fill-opacity:1;fill-rule:nonzero;stroke:none"
             id="path318" /></g><g
           id="g320"
           transform="translate(438.6992,457.0019)"><path
             d="m 0,0 c -0.67,-1.068 -1.018,-1.442 -1.163,-1.882 -2.181,-6.637 -4.307,-13.292 -6.501,-19.924 -5.428,-16.397 -10.871,-32.789 -16.333,-49.174 -6.126,-18.38 -12.299,-36.745 -18.404,-55.131 -1.408,-4.238 -1.268,-4.356 3.157,-4.357 26.292,-0.005 52.583,-0.004 78.874,0.002 4.354,0.001 4.528,0.327 3.142,4.437 -6.094,18.071 -12.176,36.147 -18.216,54.237 C 16.871,-48.779 9.237,-25.749 1.554,-2.735 1.293,-1.953 0.733,-1.271 0,0 m 0.031,-138.804 c -14.397,-0.003 -28.794,-0.04 -43.19,0.033 -2.435,0.013 -3.615,-0.67 -4.442,-3.21 -5.165,-15.856 -10.574,-31.632 -15.914,-47.431 -1.398,-4.135 -3.101,-5.384 -5.818,-4.228 -2.311,0.983 -3.396,2.444 -2.449,5.197 3.699,10.765 7.258,21.578 10.846,32.381 7.242,21.797 14.438,43.609 21.71,65.396 6.67,19.987 13.427,39.944 20.122,59.922 4.887,14.579 9.787,29.155 14.546,43.776 0.778,2.388 2.186,3.128 4.412,3.103 2.403,-0.027 4.35,-0.806 5.174,-3.26 3.212,-9.562 6.404,-19.129 9.582,-28.702 5.603,-16.871 11.18,-33.752 16.787,-50.622 5.576,-16.772 11.164,-33.539 16.768,-50.301 5.667,-16.953 11.368,-33.895 17.043,-50.845 2.282,-6.817 4.562,-13.635 6.785,-20.471 1.062,-3.266 0.379,-4.729 -2.423,-5.646 -2.407,-0.789 -4.412,0.463 -5.378,3.349 -5.422,16.191 -10.879,32.369 -16.235,48.581 -0.768,2.324 -2.111,3.028 -4.436,3.017 -14.497,-0.07 -28.994,-0.035 -43.49,-0.039"
             style="fill:#231f20;fill-opacity:1;fill-rule:nonzero;stroke:none"
             id="path322" /></g><g
           id="g324"
           transform="translate(617.4454,129.4301)"><path
             d="M 0,0 C 0.141,1.003 0.41,2.007 0.401,3.008 0.311,13.099 0.194,23.188 0.034,33.279 0.002,35.3 0.563,36.605 2.854,36.557 4.949,36.511 5.546,35.3 5.543,33.409 5.521,19.114 5.532,4.818 5.536,-9.478 c 0.001,-1.704 -0.197,-3.303 -2.354,-3.513 -2.175,-0.211 -4.145,-0.156 -5.058,2.505 -3.537,10.299 -7.167,20.564 -10.8,30.829 -0.482,1.361 -1.185,2.644 -1.786,3.964 -0.266,-0.042 -0.532,-0.084 -0.798,-0.126 -0.079,-1.013 -0.237,-2.027 -0.225,-3.038 0.112,-10.29 0.251,-20.581 0.387,-30.871 0.025,-1.793 -0.429,-3.246 -2.553,-3.312 -2.306,-0.072 -2.782,1.416 -2.779,3.363 0.024,14.096 0.018,28.192 0.024,42.287 0,1.692 -0.312,3.605 2.148,3.897 2.452,0.29 4.473,-0.036 5.434,-2.91 2.596,-7.767 5.364,-15.477 8.093,-23.2 1.242,-3.516 2.548,-7.01 3.826,-10.515 C -0.604,-0.079 -0.302,-0.039 0,0"
             style="fill:#231f20;fill-opacity:1;fill-rule:nonzero;stroke:none"
             id="path326" /></g><g
           id="g328"
           transform="translate(205.1348,153.1811)"><path
             d="m 0,0 c -0.131,-1.182 -0.385,-2.365 -0.374,-3.545 0.096,-10.088 0.237,-20.176 0.374,-30.263 0.026,-1.949 -0.829,-2.997 -2.856,-2.999 -2.073,-0.003 -2.467,1.356 -2.468,3.002 -0.008,14.593 -0.041,29.185 0.083,43.776 0.008,0.941 1.123,2.494 1.962,2.679 1.869,0.413 4.074,0.657 4.994,-1.941 2.033,-5.74 4.117,-11.463 6.157,-17.2 1.707,-4.799 3.361,-9.617 5.087,-14.409 0.425,-1.181 1.039,-2.294 2.271,-3.356 0.102,0.912 0.299,1.826 0.29,2.737 -0.115,10.388 -0.248,20.775 -0.411,31.161 -0.029,1.881 0.547,3.114 2.646,3.181 2.121,0.069 2.76,-1.116 2.758,-3.023 -0.018,-14.492 0.031,-28.985 -0.098,-43.476 -0.01,-1.04 -1.098,-2.734 -1.988,-2.969 -2.025,-0.531 -4.256,-0.398 -5.184,2.209 -1.807,5.082 -3.65,10.15 -5.431,15.239 C 5.997,-14.014 4.257,-8.804 2.443,-3.62 1.999,-2.352 1.395,-1.139 0.865,0.1 0.576,0.066 0.288,0.033 0,0"
             style="fill:#231f20;fill-opacity:1;fill-rule:nonzero;stroke:none"
             id="path330" /></g><g
           id="g332"
           transform="translate(719.5049,208.9321)"><path
             d="m 0,0 h -591.799 c -0.083,0.31 -0.132,0.403 -0.126,0.494 0.006,0.096 0.036,0.224 0.104,0.275 0.231,0.175 0.483,0.463 0.726,0.463 196.18,0.033 392.36,0.045 588.539,0.047 0.583,0 1.173,-0.127 1.747,-0.252 C -0.666,0.996 -0.571,0.742 0,0"
             style="fill:#231f20;fill-opacity:1;fill-rule:nonzero;stroke:none"
             id="path334" /></g><g
           id="g336"
           transform="translate(396.895,129.9301)"><path
             d="m 0,0 c 0.078,1.131 0.224,2.261 0.222,3.391 -0.011,9.696 -0.041,19.392 -0.085,29.088 -0.008,1.689 0.024,3.37 2.24,3.538 2.47,0.186 2.934,-1.35 2.922,-3.463 C 5.24,21.657 5.258,10.761 5.254,-0.136 5.252,-3.334 5.256,-6.533 5.282,-9.732 c 0.014,-1.653 0.071,-3.298 -2.095,-3.705 -2.14,-0.402 -4.099,-0.194 -5.02,2.108 -1.186,2.966 -2.242,5.984 -3.298,9 -2.74,7.824 -5.44,15.663 -8.184,23.485 -0.261,0.745 -0.715,1.422 -1.08,2.13 -0.263,-0.063 -0.526,-0.127 -0.789,-0.191 -0.048,-0.929 -0.14,-1.859 -0.138,-2.787 0.027,-9.997 0.072,-19.994 0.1,-29.99 0.005,-1.817 0.201,-3.798 -2.513,-3.859 -2.745,-0.063 -2.925,1.779 -2.922,3.849 0.021,13.996 0.023,27.991 0.009,41.986 -0.002,1.792 -0.021,3.54 2.376,3.731 2.162,0.173 4.114,0.179 5.04,-2.522 3.465,-10.111 7.062,-20.178 10.649,-30.247 0.431,-1.208 1.111,-2.329 1.675,-3.49 z"
             style="fill:#231f20;fill-opacity:1;fill-rule:nonzero;stroke:none"
             id="path338" /></g><g
           id="g340"
           transform="translate(339.9888,152.0327)"><path
             d="m 0,0 h 0.024 c 0,-0.797 0.003,-1.593 0,-2.39 -0.021,-6.992 0.122,-7.119 7.268,-6.484 2.962,0.263 5.36,2.103 5.868,5.071 0.397,2.322 0.456,4.764 0.24,7.113 C 13.109,6.47 11.019,8.278 7.964,8.815 6.408,9.089 4.79,8.996 3.202,9.105 0.948,9.26 -0.142,8.331 -0.021,5.976 0.081,3.988 0,1.992 0,0 m -5.106,-10.756 c 0,6.992 0.081,13.987 -0.04,20.978 -0.048,2.693 0.89,3.897 3.64,3.756 2.392,-0.124 4.807,-0.2 7.189,-0.012 9.933,0.783 14.838,-7.556 13.531,-16.118 -0.63,-4.128 -2.268,-7.888 -6.179,-10.138 -1.68,-0.966 -1.597,-2.136 -0.76,-3.766 2.645,-5.147 5.04,-10.424 7.703,-15.563 0.992,-1.916 0.485,-2.879 -1.232,-3.818 -1.84,-1.005 -2.871,-0.127 -3.603,1.359 -2.821,5.734 -5.569,11.504 -8.374,17.246 -0.389,0.795 -0.775,1.87 -1.454,2.183 -1.18,0.543 -2.685,0.986 -3.861,0.695 -0.681,-0.168 -1.367,-1.847 -1.392,-2.862 -0.124,-5.091 -0.05,-10.189 -0.005,-15.283 0.017,-1.881 -0.293,-3.525 -2.624,-3.517 -2.387,0.008 -2.554,1.767 -2.552,3.581 0.005,7.093 0.002,14.185 0.002,21.279 z"
             style="fill:#231f20;fill-opacity:1;fill-rule:nonzero;stroke:none"
             id="path342" /></g><g
           id="g344"
           transform="translate(574.5743,142.0063)"><path
             d="m 0,0 c -0.564,4.272 -0.94,9.054 -1.892,13.718 -0.779,3.818 -3.623,5.721 -7.104,5.573 -3.458,-0.147 -5.935,-2.547 -6.954,-7.127 -1.94,-8.716 -1.611,-17.465 0.048,-26.179 0.785,-4.122 3.776,-6.991 7.068,-7.057 3.416,-0.07 6.537,2.766 7.259,7.152 C -0.85,-9.505 -0.549,-5.02 0,0 M 5.568,-0.87 C 4.795,-6.076 4.435,-11.387 3.142,-16.46 c -1.569,-6.152 -6.15,-9.576 -11.528,-9.657 -5.885,-0.089 -10.596,3.083 -12.291,9.47 -2.839,10.696 -2.84,21.549 0.272,32.242 1.499,5.15 5.378,8.377 10.433,9.269 2.303,0.407 5.224,-0.934 7.45,-2.208 C 2.243,19.931 3.723,15.032 4.42,9.981 4.909,6.433 4.922,2.818 5.147,-0.767 5.288,-0.801 5.428,-0.836 5.568,-0.87"
             style="fill:#231f20;fill-opacity:1;fill-rule:nonzero;stroke:none"
             id="path346" /></g><g
           id="g348"
           transform="translate(654.8575,155.2231)"><path
             d="m 0,0 c -0.385,0.02 -0.771,0.039 -1.155,0.059 -0.324,-0.761 -0.761,-1.495 -0.953,-2.287 -0.801,-3.295 -1.408,-6.641 -2.306,-9.908 -2.154,-7.838 -1.572,-6.562 5.957,-6.711 2.209,-0.043 2.838,1.059 2.337,3.05 C 2.953,-12.121 2.007,-8.449 1.092,-4.771 0.698,-3.188 0.362,-1.591 0,0 m 14.701,-37.106 c -0.871,-0.621 -1.843,-1.81 -2.923,-1.92 -0.854,-0.087 -2.398,0.977 -2.673,1.838 -0.998,3.132 -1.713,6.372 -2.3,9.613 -0.533,2.936 -1.828,4.487 -5.045,4.061 -1.671,-0.22 -3.413,-0.197 -5.091,-0.005 -3.203,0.368 -4.502,-1.175 -4.992,-4.137 -0.506,-3.052 -1.398,-6.038 -2.013,-9.074 -0.385,-1.9 -1.233,-2.948 -3.295,-2.339 -1.803,0.532 -2.588,1.552 -2.059,3.588 3.741,14.411 7.434,28.835 11.074,43.272 0.529,2.099 1.636,2.977 3.779,3.017 2.126,0.04 3.4,-0.735 3.933,-2.832 2.387,-9.395 4.815,-18.778 7.219,-28.167 1.24,-4.841 2.456,-9.686 3.689,-14.528 0.147,-0.579 0.334,-1.148 0.697,-2.387"
             style="fill:#231f20;fill-opacity:1;fill-rule:nonzero;stroke:none"
             id="path350" /></g><g
           id="g352"
           transform="translate(434.0879,155.5649)"><path
             d="m 0,0 c -0.299,0.011 -0.599,0.021 -0.898,0.031 -0.31,-0.576 -0.752,-1.12 -0.907,-1.735 -0.92,-3.675 -1.896,-7.343 -2.621,-11.058 -1.343,-6.881 -1.278,-6.848 5.96,-6.445 2.153,0.12 2.884,0.965 2.306,3.042 -0.374,1.345 -0.611,2.727 -0.935,4.086 C 1.943,-8.051 0.97,-4.025 0,0 m -16.021,-37.271 c 2.215,8.614 4.204,16.348 6.191,24.082 1.763,6.862 3.601,13.707 5.24,20.598 0.514,2.156 1.618,2.991 3.722,3.057 2.222,0.069 3.509,-0.731 4.086,-3.006 3.661,-14.412 7.392,-28.806 11.138,-43.195 0.51,-1.956 -0.214,-3.035 -2.017,-3.668 -1.954,-0.687 -2.871,0.39 -3.294,1.999 -0.891,3.378 -1.786,6.765 -2.417,10.198 -0.442,2.406 -1.545,3.482 -4.023,3.348 -2.39,-0.13 -4.793,-0.08 -7.19,-0.023 -1.938,0.046 -2.889,-0.856 -3.288,-2.723 -0.772,-3.611 -1.675,-7.194 -2.542,-10.785 -0.367,-1.524 -1.163,-2.798 -2.9,-2.052 -1.151,0.494 -2.036,1.61 -2.706,2.17"
             style="fill:#231f20;fill-opacity:1;fill-rule:nonzero;stroke:none"
             id="path354" /></g><g
           id="g356"
           transform="translate(290.3491,141.2758)"><path
             d="m 0,0 c 0,7.095 0.064,14.19 -0.035,21.283 -0.034,2.43 0.851,3.478 3.304,3.448 5.895,-0.068 11.791,-0.03 17.686,-0.029 1.753,0 3.313,-0.31 3.235,-2.541 C 24.111,19.909 22.444,19.823 20.754,19.828 16.657,19.842 12.558,19.766 8.463,19.873 6.125,19.934 5.22,18.982 5.298,16.675 5.404,13.48 5.379,10.279 5.311,7.083 5.265,4.907 6.212,4.011 8.375,4.07 c 3.196,0.087 6.396,0.039 9.593,0.039 1.642,0.001 3.061,-0.318 3.015,-2.413 -0.045,-2.001 -1.351,-2.455 -3.045,-2.44 -3.197,0.026 -6.398,-0.05 -9.591,0.073 -2.215,0.086 -3.07,-0.84 -3.039,-3 0.061,-4.395 0.037,-8.793 -0.006,-13.189 -0.019,-2.006 0.851,-2.917 2.886,-2.889 4.197,0.058 8.394,0.028 12.591,0.029 1.686,10e-4 3.346,-0.121 3.425,-2.368 0.082,-2.307 -1.412,-2.801 -3.353,-2.793 -5.796,0.024 -11.593,0.068 -17.387,-0.02 -2.603,-0.039 -3.534,1.089 -3.504,3.617 0.086,7.094 0.03,14.189 0.03,21.284 z"
             style="fill:#231f20;fill-opacity:1;fill-rule:nonzero;stroke:none"
             id="path358" /></g><g
           id="g360"
           transform="translate(168.6157,165.9799)"><path
             d="M 0,0 C 2.198,0.001 4.396,-0.001 6.594,0.001 8.247,0.003 9.275,-0.659 9.267,-2.464 9.258,-4.269 8.237,-4.812 6.574,-4.899 2.417,-5.116 2.429,-5.165 2.43,-9.439 2.432,-19.83 2.485,-30.221 2.382,-40.609 c -0.027,-2.763 0.738,-4.188 3.755,-3.836 1.801,0.211 3.181,-0.372 3.135,-2.587 -0.046,-2.189 -1.427,-2.579 -3.232,-2.566 -3.996,0.032 -7.993,0.013 -11.989,0.012 -1.838,-0.001 -3.507,0.269 -3.53,2.636 -0.021,2.241 1.562,2.601 3.284,2.482 2.536,-0.177 3.331,1.046 3.319,3.405 -0.056,10.989 -0.079,21.979 -0.004,32.968 0.017,2.504 -0.946,3.457 -3.392,3.25 -1.767,-0.15 -3.269,0.3 -3.192,2.535 0.071,2.076 1.574,2.293 3.17,2.305 C -4.196,0.012 -2.098,0 0,0"
             style="fill:#231f20;fill-opacity:1;fill-rule:nonzero;stroke:none"
             id="path362" /></g><g
           id="g364"
           transform="translate(521.6855,165.9633)"><path
             d="M 0,0 C 2.299,0 4.63,0.225 6.88,-0.106 7.832,-0.246 8.613,-1.553 9.472,-2.329 8.579,-3.169 7.779,-4.585 6.777,-4.748 2.776,-5.397 2.76,-5.253 2.762,-9.232 2.765,-19.525 2.829,-29.819 2.717,-40.111 c -0.032,-2.872 0.441,-4.616 3.901,-4.435 0.911,0.048 2.486,-1.31 2.733,-2.283 0.45,-1.771 -0.926,-2.702 -2.694,-2.714 -4.497,-0.029 -9.002,-0.154 -13.483,0.109 -0.921,0.054 -1.752,1.631 -2.625,2.506 0.903,0.84 1.86,2.446 2.702,2.387 3.562,-0.247 4.138,1.46 4.099,4.517 -0.136,10.491 -0.119,20.986 -0.002,31.477 0.029,2.65 -0.668,4.003 -3.527,3.71 -1.785,-0.183 -3.299,0.309 -3.24,2.495 0.06,2.227 1.723,2.373 3.423,2.366 C -3.997,0.017 -1.998,0.023 0,0.023 Z"
             style="fill:#231f20;fill-opacity:1;fill-rule:nonzero;stroke:none"
             id="path366" /></g><g
           id="g368"
           transform="translate(688.5372,141.5209)"><path
             d="M 0,0 C 0,6.988 0.025,13.977 -0.016,20.964 -0.027,22.84 0.154,24.4 2.555,24.473 5.107,24.55 5.412,22.974 5.404,20.935 5.354,8.656 5.371,-3.622 5.332,-15.901 c -0.012,-3.776 0.236,-4.08 4.059,-4.078 4.192,10e-4 8.385,0.032 12.578,0.025 1.788,-0.003 3.638,-0.206 3.624,-2.545 -0.016,-2.247 -1.739,-2.635 -3.595,-2.632 -6.189,0.008 -12.38,0.099 -18.567,-0.026 -2.684,-0.055 -3.497,1.115 -3.472,3.595 0.072,7.187 0.025,14.375 0.025,21.562 z"
             style="fill:#231f20;fill-opacity:1;fill-rule:nonzero;stroke:none"
             id="path370" /></g><g
           id="g372"
           transform="translate(480.501,138.7651)"><path
             d="m 0,0 c 0,-6.191 -0.009,-12.383 0.005,-18.574 0.004,-1.9 -0.033,-3.738 -2.637,-3.799 -2.834,-0.066 -2.809,1.93 -2.807,3.914 0.016,12.283 0.027,24.565 0.042,36.849 0.004,3.622 -0.323,3.962 -3.881,3.967 -1.399,0.002 -2.884,-0.301 -4.166,0.082 -0.993,0.296 -1.732,1.444 -2.583,2.213 0.781,0.845 1.544,2.401 2.346,2.422 7.185,0.196 14.378,0.189 21.564,0.026 0.763,-0.018 2.18,-1.519 2.084,-2.148 C 9.822,24.001 8.752,22.722 7.828,22.465 6.347,22.052 4.659,22.277 3.068,22.382 0.699,22.538 -0.102,21.443 -0.074,19.173 0.004,12.782 -0.047,6.391 -0.047,0 Z"
             style="fill:#231f20;fill-opacity:1;fill-rule:nonzero;stroke:none"
             id="path374" /></g><g
           id="g376"
           transform="translate(254.2456,138.9995)"><path
             d="m 0,0 v 18.274 c 0,3.586 -0.269,3.848 -3.972,3.847 -1.397,-10e-4 -2.893,-0.308 -4.161,0.097 -0.981,0.312 -1.678,1.514 -2.501,2.321 0.822,0.808 1.626,2.296 2.467,2.317 7.185,0.182 14.378,0.177 21.563,-0.018 0.803,-0.023 2.011,-1.497 2.184,-2.452 0.109,-0.604 -1.278,-1.6 -2.143,-2.207 C 13.031,21.894 12.272,22.095 11.673,22.104 4.63,22.223 5.307,22.386 5.318,15.883 5.339,4.299 5.339,-7.284 5.336,-18.868 c -0.001,-1.606 0.14,-3.421 -2.067,-3.706 -2.483,-0.322 -3.355,1.052 -3.334,3.402 0.056,6.39 0.019,12.781 0.019,19.172 z"
             style="fill:#231f20;fill-opacity:1;fill-rule:nonzero;stroke:none"
             id="path378" /></g></g></g></g></svg>
