 <svg xmlns="http://www.w3.org/2000/svg" version="1.0" width="512.000000pt" height="512.000000pt" viewBox="0 0 512.000000 512.000000" preserveAspectRatio="xMidYMid meet">

<g transform="translate(0.000000,512.000000) scale(0.100000,-0.100000)" fill="#ffffff" stroke="none">
<path d="M367 4999 c-123 -18 -259 -116 -316 -227 -53 -104 -51 -23 -51 -1832 0 -1367 3 -1684 14 -1725 45 -169 176 -293 345 -325 32 -6 255 -10 553 -10 416 0 499 -2 495 -14 -3 -7 -87 -154 -188 -327 -195 -336 -204 -359 -161 -402 l23 -22 1479 0 1479 0 23 22 c43 43 33 67 -162 403 -100 172 -184 320 -187 327 -4 11 89 13 495 13 298 0 521 4 553 10 173 33 312 168 348 338 8 38 11 523 11 1720 0 1800 2 1720 -51 1824 -12 23 -47 68 -77 100 -67 71 -151 114 -248 128 -86 12 -4292 11 -4377 -1z m4435 -182 c61 -30 95 -64 131 -131 l22 -41 3 -1507 2 -1508 -2400 0 -2400 0 0 1488 c0 981 4 1500 10 1524 26 94 117 179 210 197 25 5 995 8 2205 7 l2160 -1 57 -28z m158 -3440 c0 -53 -6 -115 -15 -143 -19 -64 -73 -127 -139 -162 l-51 -27 -2195 0 -2195 0 -48 24 c-63 31 -123 101 -142 164 -9 29 -15 90 -15 144 l0 93 2400 0 2400 0 0 -93z m-1271 -793 c94 -163 171 -300 171 -305 0 -5 -518 -9 -1300 -9 -782 0 -1300 4 -1300 9 0 5 77 142 171 305 l171 296 958 0 958 0 171 -296z"/>
<path d="M2346 4374 c-719 -130 -1159 -863 -939 -1563 48 -153 154 -335 261 -448 l30 -33 862 0 862 0 30 32 c202 216 318 515 318 817 0 594 -421 1094 -1007 1196 -106 19 -311 18 -417 -1z m401 -159 c386 -73 688 -338 813 -713 102 -309 43 -678 -152 -940 l-53 -72 -795 0 -795 0 -53 72 c-298 401 -262 973 83 1337 156 164 331 263 555 311 107 23 289 25 397 5z"/>
<path d="M2524 4108 c-31 -14 -44 -50 -44 -119 0 -50 4 -64 25 -84 15 -16 36 -25 55 -25 19 0 40 9 55 25 21 20 25 34 25 84 0 71 -13 105 -47 120 -29 13 -41 13 -69 -1z"/>
<path d="M2894 3751 c-19 -8 -536 -629 -591 -710 -75 -110 -35 -248 91 -314 63 -33 160 -30 213 5 22 15 50 42 61 60 31 50 332 856 332 888 0 53 -57 91 -106 71z m-289 -692 c-36 -96 -72 -180 -79 -187 -19 -20 -73 -6 -92 23 -13 20 -13 27 -2 48 15 28 231 296 236 292 2 -2 -26 -81 -63 -176z"/>
<path d="M1664 3286 c-49 -22 -61 -84 -24 -124 18 -19 32 -22 94 -22 91 0 120 18 120 74 0 54 -28 77 -100 82 -38 3 -70 -1 -90 -10z"/>
<path d="M3304 3293 c-56 -11 -76 -91 -34 -133 16 -16 33 -20 95 -20 62 0 79 4 95 20 21 21 26 69 10 100 -17 32 -93 47 -166 33z"/>
<path d="M1105 2068 c-51 -29 -60 -84 -20 -123 l24 -25 1451 0 1451 0 24 25 c40 40 30 96 -22 123 -31 17 -2879 17 -2908 0z"/>
</g>
</svg>